<svg class="icon" style="width: 1em;height: 1em;vertical-align: middle;fill: currentColor;overflow: hidden;" viewBox="0 0 1024 1024" version="1.1" xmlns="http://www.w3.org/2000/svg" p-id="2994"><path d="M693.8 236.3c12 0 21.7-7.4 21.7-16.5V116.2c0-9.2-9.7-16.5-21.7-16.5s-21.6 7.4-21.6 16.5v103.6c0 9.1 9.6 16.5 21.6 16.5zM325.8 236.3c12 0 21.6-7.4 21.6-16.5V116.2c0-9.2-9.6-16.5-21.6-16.5s-21.7 7.4-21.7 16.5v103.6c0 9.1 9.7 16.5 21.7 16.5z" fill="#4A99EC" p-id="2995"></path><path d="M811.6 154.6h-71.9v57.3c0 21.8-20.3 39.5-45.3 39.5-24.9 0-45.2-17.7-45.2-39.5v-57.3h-279v57.3c0 21.8-20.3 39.5-45.2 39.5-24.9 0-45.2-17.7-45.2-39.5v-57.3H208c-48.4 0-87.9 34.4-87.9 76.8v619.3c0 42.4 39.4 76.8 87.9 76.8h603.6c48.4 0 87.9-34.5 87.9-76.8V231.3c0-42.3-39.5-76.7-87.9-76.7z m30.7 684.3c0 13.6-13.7 24.8-30.7 24.8H208c-16.9 0-30.7-11.1-30.7-24.8v-467h665v467z" fill="#4A99EC" p-id="2996"></path><path d="M332.7 662.7c7.5-9 16.3-17.1 26.4-24.6 10.1-7.5 20.8-15.1 32-22.8 5.7-4 11.9-8.1 18.4-12.2 6.6-4.1 12.4-8.6 17.8-13.7 5.3-5 9.9-10.6 13.4-16.9 3.7-6.2 5.5-13.3 5.5-21.3 0-12.7-3.7-22.7-11.1-29.8-7.4-7.1-16.8-10.7-28.3-10.7-7.8 0-14.4 1.7-19.7 5.5-5.4 3.6-9.7 8.4-12.9 14.2-3.2 5.9-5.6 12.3-6.9 19.5-1.4 7.1-2 14.2-2 21.2h-51c-0.6-15 1.2-29 5.3-41.8 4-12.9 10-24.1 18-33.7 8-9.6 18.1-17.1 30.2-22.5 12.1-5.3 26.1-8 41.7-8 12.1 0 23.5 1.9 34.3 5.6 10.9 3.9 20.4 9.2 28.7 16.1 8.3 7 14.8 15.7 19.7 25.9 4.9 10.2 7.3 21.8 7.3 34.4 0 13.3-2.1 24.7-6.3 34.2-4.3 9.5-9.9 18-16.9 25.4-6.9 7.4-14.9 14.1-23.8 20-8.9 6-17.8 11.9-26.8 17.8-9.1 5.8-17.8 12.1-26.3 18.9-8.5 6.7-15.9 14.6-22.5 23.6H501v45.7H308.4c0-15.3 2.2-28.5 6.6-39.7 4.3-11.5 10.2-21.5 17.7-30.3zM676.4 470.2V628h34.9v43.8h-34.9v60.8h-50.6v-60.8h-111v-48.7l114-152.9h47.6z m-50.6 66.7h-1.2L556.8 628h69v-91.1z" fill="#4A99EC" p-id="2997"></path></svg>