<svg class="icon" style="width: 1em;height: 1em;vertical-align: middle;fill: currentColor;overflow: hidden;" viewBox="0 0 1024 1024" version="1.1" xmlns="http://www.w3.org/2000/svg" p-id="2271"><path d="M883.07 592.89c20 35.44 39.92 71.6 59.82 107 4.65 8.53 9.31 16.45 14 24.92 8.63 16.45 1.29 31.56-16.65 34.89-54.55 11.08-109 22.93-163.59 34.11-20.58 4.6-41.88 9.86-62.45 12.46-12.67 2-26-11.13-23.27-25.58l27.92-135.29c2-8.53 3.31-16.45 4.65-25 2-11.19 9.31-17.06 20.58-19.71C774 594.88 804 589 834.52 583a210.33 210.33 0 0 0 27.92-3.93c9.98 0.03 15.98 5.29 20.63 13.82z m-693.5-157c12 10.52 22.65 20.38 33.92 30.24 38.57 34.17 77.82 68.28 116.39 103.11 33.25 29.57 67.11 59.09 100.35 89.32 3.36 2.6 6 3.32 10.65 1.94 35.88-10.5 71.82-21.59 108.37-31.5 20-5.93 28.59-0.66 35.88 17.11C613.8 694 632.42 741.35 651 789.26c6.67 17.06 0 29.57-17.94 33.5-63.86 12.46-127 24.92-190.84 37.43-12.61 2.6-24.61 5.26-37.23 7.2-6.67 1.33-12.61-1.27-17.94-5.87L265.37 757.08c-51.91-44.69-103.1-89.32-155-133.35-12.61-10.52-24.61-21-37.23-32.12-10.65-9.25-12-16.45-6.67-29.57 19.29-46.68 38.57-93.31 57.18-139.27a29.27 29.27 0 0 1 18.61-17.72c26.63-7.86 53.2-16.39 79.78-24.31 10-3.32 19.29-2.6 26.63 5.93 10.65 11.8 5.33 29.57-10.65 35.44-12.61 4.6-25.9 7.92-38.57 11.85-2.63-0.66-6 0.66-10 1.94z m270-270.57c17.27 12.52 192.13 147.14 289.17 221.34a36 36 0 0 1 9.31 11.19c20.63 42 41.94 84.06 61.84 126.76 7.29 15.73 1.35 29.52-18.61 32.78-28.59 5.26-57.86 11.19-86.39 16.45C679 580.43 643.07 587 607.8 594.22c-10 1.94-19.29 3.27-29.26 5.87-8.63 2.66-14.58-0.61-20.57-5.21l-98.45-77.53c-69.13-54.49-137.63-109-206.76-163.53-11.32-9.19-13.29-16.45-8-29.57C261.39 284.88 278 244.79 294 205.42a31.5 31.5 0 0 1 25.23-21.71c28-5.87 81.18-19 109.1-24.92 9.31-2 11.94-3.32 18.61-2 5.33 2 8.63 5.93 12.61 8.53z m-91.77 53.22c2 1.94 3.31 2.6 3.92 3.93L615.2 413.58c2 2 6.62 2.66 9.92 2 18.67-4.6 37.28-9.86 55.89-15.12 2.63-0.66 5.33-2 9.31-2.6-20-15.12-38.57-28.91-57.18-43.36-64.47-49.29-129-97.85-193.47-147.14-2-1.27-5.33-3.32-7.29-3.32-21.3 4-41.93 9.25-64.53 14.51z" fill="#7079F5" p-id="2272"></path><path d="M559.93 541.67c1.35-3.32 2.69-5.26 2.69-7.2 8-25.64 15.25-51.94 23.94-77.53 2.63-7.2 0.62-10.52-5.33-15.12-67.84-53.16-135.67-106.38-202.83-158.93-17.27-13.79-34.53-26.91-51.86-40.7a24 24 0 0 0-2.63 5.93c-10 24.26-20 48.57-30.61 72.88-2.63 5.93-2 9.19 3.36 13.12 71.14 55.82 142.29 112.3 213.43 168.79 16.59 12.46 32.52 25.64 49.9 38.76zM389 805c2-8.58 3.36-16.45 5.33-23.65l20-82.79c1.35-3.88 0-5.87-2.69-8.53-75.8-66.34-150.92-133.29-226-199.63-10-8.53-20-17.72-30.55-26.91-14 33.45-27.3 66.29-40.59 99.12-0.67 2 1.35 5.93 2.69 7.92 11.27 10.52 23.27 20.32 35.21 30.85l188.77 162.9c15.98 12.52 31.28 26.3 47.83 40.72z" fill="#97A1FC" p-id="2273"></path></svg>