<svg class="icon" style="width: 1em;height: 1em;vertical-align: middle;fill: currentColor;overflow: hidden;" viewBox="0 0 1024 1024" version="1.1" xmlns="http://www.w3.org/2000/svg" p-id="9397"><path d="M219.465 544.515l190.149 100.079h170.135c-89.054-407.666-360.284-100.079-360.284-100.079z m630.497-250.198s-56.909-32.458-90.071-20.016c-45.054 16.888-70.054 80.063-70.054 80.063l10.008 20.016h140.109l30.025-10.007-20.017-70.056z" fill="#ffffff" p-id="9398"></path><path d="M634.882 715.05a23.59 23.59 0 0 0-31.921 10.115c-0.459 0.929-48.27 91.565-148.124 115.833-12.715 3.099-20.456 15.873-17.329 28.559 2.092 8.482 8.522 14.757 16.362 17.083a23.743 23.743 0 0 0 12.324 0.293c120.545-29.281 176.604-135.507 178.939-140.013 5.971-11.592 1.396-25.851-10.251-31.87z m69.244-75.647c-7.058-2.091-11.895-2.707-11.895-2.707-32.174 2.688-65.755 2.697-94.898 2.229 8.267-98.192-49.112-188.665-146.396-217.417-20.544-6.079-42.124-8.953-62.579-8.649-75.187 1.095-144.93 43.286-181.14 110.77-24.765-15.5-50.009-32.847-75.645-52.639 0 0-4.398-2.12-11.454-4.212-24.033-7.095-79.018-13.947-96.814 63.585 0 0-58.886 216.783 96.063 353.58a668.185 668.185 0 0 0 174.882 80.61c106.541 31.499 184.678 25.685 184.678 25.685 204.233-30.571 272.129-244.765 272.129-244.765 26.995-74.815-22.901-98.964-46.931-106.07z m-265.612-176.31c75.931 22.449 124.327 99.121 117.027 175.832-59.451-4.222-112.97-11.875-158.827-25.118-45.544-13.799-150.461-66.985-150.461-66.985s55.347-118.2 192.261-83.729z m275.844 267.936c-42.35 144.508-206.395 212.364-234.053 217.701-10.994 1.896-87.657 1.533-175.539-25.118-50.001-15.157-113.146-36.455-158.827-75.352-134.001-114.123-87.08-298.234-76.446-307.205 11.776-9.93 8.844-25.626 14.807-29.086 6.879-3.997 18.95-0.909 22.488 0.138 0.459 0.137 0.88 0.283 1.3 0.41 86.875 66.185 178.833 114.251 274.007 143.082 89.835 25.918 179.857 31.558 282.116 25.196 5.164-0.32 15.568 0.595 22.188 0.266-2.93-1.264-2.99-1.517 2.889-0.266-0.835 0.129-1.817 0.212-2.889 0.266 6.067 2.615 24.445 9.564 27.959 16.484 3.146 6.147 5.277 18.247 0 33.484z m215.374-335.002c-6.449-0.644-11.582 3.568-14.757 8.454-3.245 5.161-16.146 36.885-50.148 58.611-5.248 3.361-1.748 24.267 1.907 29.046 2.443 3.197 6.479 4.779 10.457 4.477a12.129 12.129 0 0 0 5.678-1.858c49.895-31.587 65.268-79.652 65.55-81.9 0.685-5.786-12.314-16.193-18.687-16.83z m77.318-29.818c-0.968-45.866-33.875-48.505-48.759-47.333-4.368 0.352-7.192 1.027-7.192 1.027a561.52 561.52 0 0 1-50.402 20.739c-16.39-54.564-43.433-86.416-127.825-86.875-108.641-0.596-108.66 100.48-108.66 100.48s-41.83-1.691-60.313-7.018c0 0-2.901-0.224-7.27 0.117-14.885 1.173-46.924 8.914-40.256 54.34 0 0 13.563 128.9 128.958 170.33a411.227 411.227 0 0 0 114.484 7.037c65.979-5.2 108.191-24.561 108.191-24.561 107.048-58.903 99.044-188.283 99.044-188.283zM781.236 287.26c71.776 0.841 75.228 66.987 75.228 66.987 0.506 6.167-29.684 9.021-75.228 8.365-36.308-0.507-75.234-8.365-75.234-8.365s8.855-67.768 75.234-66.987z m108.671 226.078c-5.972 2.521-37.451 20.826-91.957 25.116-34.863 2.737-65.98-1.572-100.306-8.374-95.317-35.557-108.952-120.038-108.67-125.599 0.255-11.894 7.879-28.987 25.08-25.118 36.044 8.113 108.093 29.379 167.182 25.118 130.211-11.073 175.539-50.234 175.539-50.234s16.165-8.19 16.722 16.742c7.067 98.231-83.59 142.349-83.59 142.349zM84.26 290.202c6.978 6.988 18.286 6.988 25.254 0l53.03-53.121 53.031 53.121c6.977 6.988 18.286 6.988 25.253 0 6.978-6.978 6.978-18.305 0-25.292l-53.032-53.124 53.032-53.123c6.978-6.978 6.978-18.306 0-25.293-6.968-6.978-18.276-6.978-25.253 0l-53.031 53.122-53.03-53.122c-6.968-6.978-18.276-6.978-25.254 0-6.968 6.988-6.968 18.315 0 25.293l53.033 53.123-53.033 53.123c-6.968 6.987-6.968 18.315 0 25.293z m377.935-17.064h-92.856c0-4.252 2.541-9.256 7.634-15.012 5.081-5.756 15.021-13.917 29.817-24.491 15.354-10.849 26.525-20.144 33.495-27.884 6.978-7.74 12.293-16.028 15.968-24.853 3.675-8.815 5.512-18.707 5.512-29.653 0-19.635-6.352-35.037-19.078-46.228-12.715-11.181-30.014-16.771-51.866-16.771-23.838 0-45.32 6.176-64.456 18.54v40.774c17.152-15.1 35.144-22.654 53.997-22.654 21.483 0 32.223 9.871 32.223 29.593 0 9.158-2.824 17.817-8.483 25.978-5.649 8.161-15.548 17.534-29.682 28.098-15.45 10.957-26.846 20.515-34.196 28.675-7.35 8.161-13.127 16.967-17.32 26.398-4.191 9.44-6.284 19.869-6.284 31.284v16.283h145.573v-38.077z" fill="#ffffff" p-id="9399"></path></svg>