<svg set="weather" skycode="34" theme="fullWhite"
    class="CurrentConditions--wxIcon--30DcR Icon--icon--2aW0V Icon--fullWhiteTheme--3zy-O" name=""
    data-testid="Icon" viewBox="0 0 200 200">
    <symbol id="svg-symbol-cloud">
        <path fill="#d3d3d3" transform="matrix(.57 0 0 .57 74 8)"
            d="M197.9,108.5c-4.7-17.5-22.7-28-40.2-23.4c0,0-1.3,0.3-3.5,0.9c-5.6-20.8-24.6-36.2-47.2-36.2 c-24.5,0-44.8,18.1-48.3,41.6c-0.8-0.2-1.3-0.3-1.3-0.3c-14.8-3.8-30,5-33.9,19.8c-0.9,3.5-1.1,7-0.8,10.4c-7.4,2-12,3.2-12,3.2 c-7,1.9-11.1,9-9.2,16c1.6,6.1,7.3,10,13.4,9.7h150.3c0,0,6.2-0.3,9.4-1.1C192.1,144.3,202.6,126.2,197.9,108.5z"></path>
    </symbol>
    <symbol id="svg-symbol-sun" fill="#e8ce05">
        <path fill="#e8ce05" transform="rotate(0, 100, 100)"
            d="M100,44.1c3.1,0,6.1,0.3,9,0.7l-5.3-40.7c0,0,0-0.1,0-0.1c-0.3-1.9-2-3.2-4-3c-1.5,0.2-2.7,1.3-3,2.8 c0,0.1-0.1,0.2-0.1,0.2l-5.5,40.7C94.1,44.3,97,44.1,100,44.1z"></path>
        <path fill="#e8ce05" transform="rotate(30, 100, 100)"
            d="M100,44.1c3.1,0,6.1,0.3,9,0.7l-5.3-40.7c0,0,0-0.1,0-0.1c-0.3-1.9-2-3.2-4-3c-1.5,0.2-2.7,1.3-3,2.8 c0,0.1-0.1,0.2-0.1,0.2l-5.5,40.7C94.1,44.3,97,44.1,100,44.1z"></path>
        <path fill="#e8ce05" transform="rotate(60, 100, 100)"
            d="M100,44.1c3.1,0,6.1,0.3,9,0.7l-5.3-40.7c0,0,0-0.1,0-0.1c-0.3-1.9-2-3.2-4-3c-1.5,0.2-2.7,1.3-3,2.8 c0,0.1-0.1,0.2-0.1,0.2l-5.5,40.7C94.1,44.3,97,44.1,100,44.1z"></path>
        <path fill="#e8ce05" transform="rotate(90, 100, 100)"
            d="M100,44.1c3.1,0,6.1,0.3,9,0.7l-5.3-40.7c0,0,0-0.1,0-0.1c-0.3-1.9-2-3.2-4-3c-1.5,0.2-2.7,1.3-3,2.8 c0,0.1-0.1,0.2-0.1,0.2l-5.5,40.7C94.1,44.3,97,44.1,100,44.1z"></path>
        <path fill="#e8ce05" transform="rotate(120, 100, 100)"
            d="M100,44.1c3.1,0,6.1,0.3,9,0.7l-5.3-40.7c0,0,0-0.1,0-0.1c-0.3-1.9-2-3.2-4-3c-1.5,0.2-2.7,1.3-3,2.8 c0,0.1-0.1,0.2-0.1,0.2l-5.5,40.7C94.1,44.3,97,44.1,100,44.1z"></path>
        <path fill="#e8ce05" transform="rotate(150, 100, 100)"
            d="M100,44.1c3.1,0,6.1,0.3,9,0.7l-5.3-40.7c0,0,0-0.1,0-0.1c-0.3-1.9-2-3.2-4-3c-1.5,0.2-2.7,1.3-3,2.8 c0,0.1-0.1,0.2-0.1,0.2l-5.5,40.7C94.1,44.3,97,44.1,100,44.1z"></path>
        <path fill="#e8ce05" transform="rotate(180, 100, 100)"
            d="M100,44.1c3.1,0,6.1,0.3,9,0.7l-5.3-40.7c0,0,0-0.1,0-0.1c-0.3-1.9-2-3.2-4-3c-1.5,0.2-2.7,1.3-3,2.8 c0,0.1-0.1,0.2-0.1,0.2l-5.5,40.7C94.1,44.3,97,44.1,100,44.1z"></path>
        <path fill="#e8ce05" transform="rotate(210, 100, 100)"
            d="M100,44.1c3.1,0,6.1,0.3,9,0.7l-5.3-40.7c0,0,0-0.1,0-0.1c-0.3-1.9-2-3.2-4-3c-1.5,0.2-2.7,1.3-3,2.8 c0,0.1-0.1,0.2-0.1,0.2l-5.5,40.7C94.1,44.3,97,44.1,100,44.1z"></path>
        <path fill="#e8ce05" transform="rotate(240, 100, 100)"
            d="M100,44.1c3.1,0,6.1,0.3,9,0.7l-5.3-40.7c0,0,0-0.1,0-0.1c-0.3-1.9-2-3.2-4-3c-1.5,0.2-2.7,1.3-3,2.8 c0,0.1-0.1,0.2-0.1,0.2l-5.5,40.7C94.1,44.3,97,44.1,100,44.1z"></path>
        <path fill="#e8ce05" transform="rotate(270, 100, 100)"
            d="M100,44.1c3.1,0,6.1,0.3,9,0.7l-5.3-40.7c0,0,0-0.1,0-0.1c-0.3-1.9-2-3.2-4-3c-1.5,0.2-2.7,1.3-3,2.8 c0,0.1-0.1,0.2-0.1,0.2l-5.5,40.7C94.1,44.3,97,44.1,100,44.1z"></path>
        <path fill="#e8ce05" transform="rotate(300, 100, 100)"
            d="M100,44.1c3.1,0,6.1,0.3,9,0.7l-5.3-40.7c0,0,0-0.1,0-0.1c-0.3-1.9-2-3.2-4-3c-1.5,0.2-2.7,1.3-3,2.8 c0,0.1-0.1,0.2-0.1,0.2l-5.5,40.7C94.1,44.3,97,44.1,100,44.1z"></path>
        <path fill="#e8ce05" transform="rotate(330, 100, 100)"
            d="M100,44.1c3.1,0,6.1,0.3,9,0.7l-5.3-40.7c0,0,0-0.1,0-0.1c-0.3-1.9-2-3.2-4-3c-1.5,0.2-2.7,1.3-3,2.8 c0,0.1-0.1,0.2-0.1,0.2l-5.5,40.7C94.1,44.3,97,44.1,100,44.1z"></path>
        <circle fill="#e8ce05" cx="100" cy="100" r="46.1"></circle>
    </symbol>
    <use href="#svg-symbol-sun"></use>
    <use href="#svg-symbol-cloud"></use>
</svg>