<?xml version="1.0" encoding="utf-8"?>
<!-- Generator: Adobe Illustrator 22.0.0, SVG Export Plug-In . SVG Version: 6.00 Build 0)  -->
<svg version="1.1" id="图层_1" xmlns="http://www.w3.org/2000/svg" xmlns:xlink="http://www.w3.org/1999/xlink" x="0px" y="0px"
	 viewBox="0 0 16 16" style="enable-background:new 0 0 16 16;" xml:space="preserve">
<style type="text/css">
	.st0{fill:#FF7940;}
	.st1{fill:#D9D9D9;}
</style>
<path class="st0" d="M4.7,1.8C4.8,2.1,5,2.3,5.3,2.2s0.5-0.3,0.4-0.6l0,0L5.5,0.4C5.4,0.1,5.1,0,4.9,0C4.6,0.1,4.4,0.4,4.5,0.6
	L4.7,1.8z"/>
<path class="st0" d="M1,3.5l1,0.6C2.3,4.3,2.6,4.2,2.7,4c0.1-0.2,0.1-0.5-0.2-0.7l-1-0.6C1.3,2.5,1,2.6,0.9,2.8
	C0.7,3.1,0.8,3.4,1,3.5z"/>
<path class="st0" d="M0.6,8l1.1-0.3C2,7.6,2.2,7.4,2.1,7.1c0-0.2-0.3-0.4-0.5-0.3l0,0L0.4,7C0.1,7.1,0,7.4,0,7.7S0.3,8.1,0.6,8z"/>
<path class="st0" d="M10.9,5.8H11l1.1-0.3c0.3-0.1,0.5-0.3,0.4-0.6c-0.1-0.3-0.3-0.5-0.6-0.4l-1.1,0.3c-0.3,0.1-0.5,0.3-0.4,0.6
	C10.4,5.6,10.6,5.8,10.9,5.8z"/>
<path class="st0" d="M8.5,2.7c0.2,0.2,0.6,0.1,0.7-0.2l0.6-1C10,1.3,9.9,1,9.7,0.9C9.5,0.7,9.2,0.8,9,1L8.4,2
	C8.2,2.3,8.3,2.6,8.5,2.7z"/>
<path class="st0" d="M2.8,7C2.9,7.3,3,7.6,3.2,7.9c0.3-0.1,0.6-0.3,0.9-0.5C4,7.2,3.9,7,3.8,6.8c-0.3-1.4,0.6-2.7,1.9-3
	s2.6,0.6,3,1.9l0,0c0.4,0,0.7,0.1,1.1,0.3c0-0.2,0-0.3-0.1-0.5C9.3,3.6,7.4,2.4,5.5,2.8S2.4,5.1,2.8,7z"/>
<path class="st1" d="M12,14.4c-0.9,1-2.2,1.6-3.6,1.6c-1.3,0-2.6-0.6-3.5-1.5c-0.3,0.1-0.7,0.2-1.1,0.2C2.2,14.7,1,13.5,1,12
	s1.3-2.7,2.8-2.7c0.2,0,0.3,0,0.5,0C5.1,7.9,6.7,7,8.4,7c1.8,0,3.3,0.9,4.1,2.3c0.2-0.1,0.4-0.1,0.7-0.1c1.6,0,2.8,1.2,2.8,2.7
	s-1.3,2.7-2.8,2.7C12.8,14.7,12.4,14.6,12,14.4z"/>
</svg>
