<?xml version="1.0" encoding="utf-8"?>
<!-- Generator: Adobe Illustrator 22.0.0, SVG Export Plug-In . SVG Version: 6.00 Build 0)  -->
<svg version="1.1" id="图层_1" xmlns="http://www.w3.org/2000/svg" xmlns:xlink="http://www.w3.org/1999/xlink" x="0px" y="0px"
	 viewBox="0 0 16 16" style="enable-background:new 0 0 16 16;" xml:space="preserve">
<style type="text/css">
	.st0{fill:#D9D9D9;}
	.st1{fill:#FF7940;}
</style>
<path class="st0" d="M15.3,11.8c-0.5-0.4-1.1-0.7-1.7-0.7l0,0c-0.2,0-0.4,0-0.6,0.1c-0.8-0.7-1.8-1.1-2.9-1.2
	c-0.6,0-1.1,0.1-1.6,0.3s-1,0.5-1.4,0.9c-0.2,0-0.4-0.1-0.6-0.1c-0.5,0-0.9,0.1-1.4,0.3c-0.4,0.2-0.8,0.5-1.1,0.9
	c-0.1-0.1-0.3-0.1-0.4-0.1c-0.3,0-0.5,0.1-0.8,0.2c-0.2,0.1-0.4,0.3-0.6,0.5s-0.3,0.4-0.3,0.7c0,0.2,0,0.5,0,0.7
	c0.1,0.2,0.2,0.5,0.4,0.6c0.2,0.2,0.4,0.3,0.6,0.4c0.5,0.2,1,0.1,1.5-0.1c0.6,0.4,1.3,0.7,2,0.7c0.5,0,1-0.1,1.5-0.4
	c0.7,0.4,1.4,0.5,2.2,0.5s1.5-0.3,2.2-0.7c0.3,0.2,0.7,0.3,1.1,0.3c0.6,0,1.2-0.2,1.7-0.7c0.5-0.4,0.7-1,0.7-1.6
	C16,12.7,15.7,12.2,15.3,11.8z M14.6,14.3c-0.3,0.3-0.6,0.4-1,0.4c-0.2,0-0.5-0.1-0.7-0.2c-0.3-0.2-0.7-0.1-1.1,0.1
	c-0.5,0.3-1.1,0.5-1.7,0.5c-0.5,0-1.1-0.1-1.5-0.4c-0.2-0.1-0.3-0.1-0.5-0.1s-0.3,0-0.5,0.1c-0.3,0.2-0.7,0.2-1,0.2
	c-0.5,0-1-0.1-1.3-0.4c-0.2-0.1-0.4-0.2-0.7-0.2c-0.2,0-0.6,0.2-0.9,0.2c-0.2,0-0.3-0.1-0.4-0.2c-0.1-0.1-0.2-0.3-0.2-0.4
	c0-0.2,0.1-0.3,0.2-0.4c0.1-0.1,0.3-0.2,0.4-0.2c0,0,0.4,0.1,0.5,0.1c0.2,0,0.3,0,0.5-0.1C4.8,13.1,4.9,13,5,12.9
	c0.2-0.2,0.4-0.4,0.7-0.5c0.3-0.1,0.6-0.2,0.9-0.2c0.1,0,0.5,0.1,0.6,0.1s0.3,0,0.4-0.1s0.2-0.1,0.3-0.2c0.3-0.3,0.6-0.5,1-0.7
	C9.3,11,9.7,11,10.1,11c0.4,0,0.8,0.1,1.2,0.2c0.4,0.2,0.7,0.4,1,0.6c0.1,0.1,0.2,0.2,0.3,0.2s0.3,0.1,0.4,0.1
	c0.1,0,0.5-0.1,0.6-0.1c0.4,0,0.7,0.2,1,0.4s0.4,0.6,0.5,0.9C15,13.7,14.8,14,14.6,14.3z"/>
<path class="st1" d="M4.8,10.7c0.6-0.4,1.2-0.6,1.9-0.6h0.2c0.9-0.8,2-1.2,3.1-1.2c0.7,0,1.4,0.2,2,0.5c0.2-0.5,0.3-1.1,0.3-1.6
	c0-2.4-2-4.4-4.4-4.4s-4.4,2-4.4,4.4C3.6,8.8,4,9.9,4.8,10.7z"/>
<path class="st1" d="M8,2.5c0.3,0,0.5-0.2,0.5-0.5V0.5C8.5,0.2,8.3,0,8,0S7.5,0.2,7.5,0.5l0,0V2C7.5,2.3,7.7,2.5,8,2.5L8,2.5z"/>
<path class="st1" d="M3.4,4.1c0.2,0.2,0.5,0.2,0.7,0l0,0c0.2-0.2,0.2-0.5,0-0.7l0,0l-1-1c-0.2-0.2-0.5-0.2-0.7,0s-0.2,0.5,0,0.7l0,0
	C2.4,3.1,3.4,4.1,3.4,4.1z"/>
<path class="st1" d="M2.5,8c0-0.3-0.2-0.5-0.5-0.5H0.5C0.2,7.5,0,7.7,0,8s0.2,0.5,0.5,0.5H2C2.3,8.5,2.5,8.3,2.5,8L2.5,8z"/>
<path class="st1" d="M13.5,8c0,0.3,0.2,0.5,0.5,0.5h1.5C15.7,8.5,16,8.3,16,8s-0.2-0.5-0.5-0.5H14C13.7,7.5,13.5,7.7,13.5,8L13.5,8z
	"/>
<path class="st1" d="M12.3,4.3c0.1,0,0.3-0.1,0.4-0.2L13.8,3c0.2-0.2,0.2-0.5,0-0.7s-0.5-0.2-0.7,0l0,0L12,3.4
	c-0.2,0.2-0.2,0.5,0,0.7l0,0C12,4.2,12.1,4.3,12.3,4.3z"/>
</svg>
