<?xml version="1.0" encoding="utf-8"?>
<!-- Generator: Adobe Illustrator 22.0.0, SVG Export Plug-In . SVG Version: 6.00 Build 0)  -->
<svg version="1.1" id="图层_1" xmlns="http://www.w3.org/2000/svg" xmlns:xlink="http://www.w3.org/1999/xlink" x="0px" y="0px"
	 viewBox="0 0 16 16" style="enable-background:new 0 0 16 16;" xml:space="preserve">
<style type="text/css">
	.st0{fill:#D9D9D9;}
	.st1{filter:url(#Adobe_OpacityMaskFilter);}
	.st2{opacity:0.75;mask:url(#SVGID_1_);}
	.st3{fill:#FFFFFF;}
</style>
<path class="st0" d="M11.7,14.2C10.8,15.3,9.4,16,7.9,16c-1.4,0-2.8-0.6-3.8-1.7c-1.5,0.6-3.3-0.1-3.9-1.7s0.1-3.3,1.7-3.9
	C2.4,8.5,3,8.4,3.5,8.5C4.4,7,6.1,6,7.9,6s3.5,1,4.4,2.6c1.6-0.4,3.2,0.6,3.6,2.2s-0.6,3.2-2.2,3.6C13.1,14.6,12.3,14.5,11.7,14.2z"
	/>
<g>
	<g>
		<path class="st0" d="M4,6.6c0-0.8,0.7-1.5,1.5-1.5h0.1h0.1c0.4,0,0.8-0.1,1-0.4c0.8-1.3,2.5-1.6,3.8-0.8c0.3,0.2,0.6,0.5,0.8,0.8
			s0.6,0.5,1,0.4h0.1h0.1c0.8,0,1.5,0.7,1.5,1.5c0,0.2,0,0.4-0.1,0.5c0.3,0.1,0.6,0.3,0.9,0.5c0.6-1.2,0.1-2.7-1.1-3.3
			c-0.5-0.2-1-0.3-1.5-0.2C11,2.5,8.7,2,7,3.1C6.5,3.4,6.2,3.8,5.9,4.2c-0.1,0-0.2,0-0.3,0C4.1,4.2,3,5.3,3,6.7l0,0
			C3,6.9,3,7,3.1,7.2C3.3,6.9,3.6,6.7,4,6.6L4,6.6z"/>
	</g>
	<defs>
		<filter id="Adobe_OpacityMaskFilter" filterUnits="userSpaceOnUse" x="3" y="2.5" width="12.1" height="5.1">
			
				<feColorMatrix  type="matrix" values="-1 0 0 0 1  0 -1 0 0 1  0 0 -1 0 1  0 0 0 1 0" color-interpolation-filters="sRGB" result="source"/>
		</filter>
	</defs>
	<mask maskUnits="userSpaceOnUse" x="3" y="2.5" width="12.1" height="5.1" id="SVGID_1_">
		<g class="st1">
			<image style="overflow:visible;" width="17" height="10" xlink:href="FD73E31A.jpg"  transform="matrix(1 0 0 1 1 0)">
			</image>
		</g>
	</mask>
	<g class="st2">
		<path class="st3" d="M4,6.6c0-0.8,0.7-1.5,1.5-1.5h0.1h0.1c0.4,0,0.8-0.1,1-0.4c0.8-1.3,2.5-1.6,3.8-0.8c0.3,0.2,0.6,0.5,0.8,0.8
			s0.6,0.5,1,0.4h0.1h0.1c0.8,0,1.5,0.7,1.5,1.5c0,0.2,0,0.4-0.1,0.5c0.3,0.1,0.6,0.3,0.9,0.5c0.6-1.2,0.1-2.7-1.1-3.3
			c-0.5-0.2-1-0.3-1.5-0.2C11,2.5,8.7,2,7,3.1C6.5,3.4,6.2,3.8,5.9,4.2c-0.1,0-0.2,0-0.3,0C4.1,4.2,3,5.3,3,6.7l0,0
			C3,6.9,3,7,3.1,7.2C3.3,6.9,3.6,6.7,4,6.6L4,6.6z"/>
	</g>
</g>
</svg>
