<?xml version="1.0" encoding="utf-8"?>
<!-- Generator: Adobe Illustrator 22.0.0, SVG Export Plug-In . SVG Version: 6.00 Build 0)  -->
<svg version="1.1" id="图层_1" xmlns="http://www.w3.org/2000/svg" xmlns:xlink="http://www.w3.org/1999/xlink" x="0px" y="0px"
	 viewBox="0 0 16 16" style="enable-background:new 0 0 16 16;" xml:space="preserve">
<style type="text/css">
	.st0{fill:#D9D9D9;}
	.st1{fill:#FFD500;}
</style>
<path class="st0" d="M11,14.4c-0.9,1-2.2,1.6-3.6,1.6c-1.3,0-2.6-0.6-3.5-1.5c-0.3,0.1-0.7,0.2-1.1,0.2C1.2,14.7,0,13.5,0,12
	s1.3-2.7,2.8-2.7c0.2,0,0.3,0,0.5,0C4.1,7.9,5.7,7,7.4,7c1.8,0,3.3,0.9,4.1,2.3c0.2-0.1,0.4-0.1,0.7-0.1c1.6,0,2.8,1.2,2.8,2.7
	s-1.3,2.7-2.8,2.7C11.8,14.7,11.4,14.6,11,14.4z"/>
<path class="st1" d="M15.6,6.6h-0.1c-0.4,0.1-0.7,0.1-1.1,0.1c-0.5,0-1-0.1-1.4-0.2c-2.1-0.7-3.3-2.9-2.7-5.1C10.3,1.3,10.2,1,10,1
	H9.9H9.8c-1.9,0.8-3.1,2.7-3,4.7c0,0.1,0,0.2,0.1,0.3c0.2,0,0.4,0,0.7,0c0.1,0,0.2,0,0.3,0c0-0.1,0-0.3-0.1-0.4
	C7.7,4.5,8.2,3.3,9.1,2.5c0,0.6,0.1,1.1,0.3,1.6c0.5,1.6,1.7,2.8,3.3,3.3c0.6,0.2,1.2,0.3,1.8,0.3l0,0c-0.3,0.3-0.6,0.6-0.9,0.8
	c0.3,0.2,0.6,0.4,0.9,0.6c0.7-0.5,1.2-1.2,1.5-2c0.1-0.2,0-0.4-0.2-0.5C15.7,6.6,15.7,6.6,15.6,6.6L15.6,6.6z"/>
</svg>
