<?xml version="1.0" encoding="utf-8"?>
<!-- Generator: Adobe Illustrator 22.0.0, SVG Export Plug-In . SVG Version: 6.00 Build 0)  -->
<svg version="1.1" id="图层_1" xmlns="http://www.w3.org/2000/svg" xmlns:xlink="http://www.w3.org/1999/xlink" x="0px" y="0px"
	 viewBox="0 0 16 16" style="enable-background:new 0 0 16 16;" xml:space="preserve">
<style type="text/css">
	.st0{fill:#D9D9D9;}
	.st1{fill:#FFD500;}
</style>
<path class="st0" d="M10,13c-0.2-1.1-1.2-1.8-2.3-1.6c-0.1,0-0.2,0-0.2-0.1C6.9,10.5,6,10,5,10s-1.9,0.5-2.4,1.2
	c-0.1,0.1-0.1,0.1-0.2,0.1c-0.4-0.1-0.7,0-1.1,0.1c-1,0.4-1.5,1.6-1.1,2.6s1.6,1.5,2.6,1.1c0.1,0,0.2,0,0.2,0C3.5,15.7,4.2,16,5,16
	s1.5-0.3,2-0.8c0.1-0.1,0.2-0.1,0.2,0l0,0c0.3,0.1,0.7,0.2,1.1,0.1C9.4,15.1,10.2,14,10,13z M9,14.1c-0.4,0.5-1.2,0.6-1.8,0.2
	c-0.1-0.1-0.3-0.1-0.4,0c-0.4,0.6-1.1,0.9-1.8,0.9s-1.4-0.3-1.8-0.9c-0.1-0.1-0.3-0.1-0.4,0c-0.4,0.3-0.9,0.4-1.4,0.1
	c-0.6-0.3-0.9-1.1-0.5-1.7c0.3-0.6,1.1-0.9,1.7-0.5c0.1,0.1,0.3,0,0.4-0.1c0.2-0.5,0.6-0.9,1.1-1.1c1.1-0.5,2.5,0,3,1.1
	c0.1,0.1,0.2,0.2,0.4,0.1c0.4-0.2,1-0.2,1.4,0.1C9.3,12.8,9.4,13.5,9,14.1z"/>
<path class="st1" d="M8.2,0.6c0-0.4-0.3-0.7-0.6-0.6C7,0.3,6.5,0.7,6,1.1c-2.3,2.1-2.7,5.5-1,8c1.3-0.4,2.8,0.1,3.5,1.3
	c0.1,0,0.2,0,0.3,0c1,0,1.8,0.7,2,1.6c2.1-0.2,4-1.3,5.1-3.1c0.2-0.3-0.1-0.7-0.5-0.6c-2,0.3-4.7-0.3-6.2-1.8S7.7,2.6,8.2,0.6z"/>
</svg>
