<?xml version="1.0" encoding="utf-8"?>
<!-- Generator: Adobe Illustrator 22.0.0, SVG Export Plug-In . SVG Version: 6.00 Build 0)  -->
<svg version="1.1" id="图层_1" xmlns="http://www.w3.org/2000/svg" xmlns:xlink="http://www.w3.org/1999/xlink" x="0px" y="0px"
	 viewBox="0 0 16 16" style="enable-background:new 0 0 16 16;" xml:space="preserve">
<style type="text/css">
	.st0{fill:#D9D9D9;}
	.st1{fill:#FFD500;}
</style>
<path class="st0" d="M11.7,11.1c-0.2,0-0.4,0-0.6,0.1C10.3,10.4,9.3,10,8.2,10c-0.6,0-1.1,0.1-1.6,0.3s-1,0.5-1.4,0.9
	c-0.2,0-0.4-0.1-0.6-0.1c-0.5,0-0.9,0.1-1.4,0.3c-0.4,0.2-0.8,0.5-1.1,0.9c-0.1-0.1-0.3-0.1-0.4-0.1c-0.3,0-0.5,0.1-0.8,0.2
	c-0.2,0.1-0.4,0.3-0.6,0.5S0,13.3,0,13.6c0,0.2,0,0.5,0,0.7c0.1,0.2,0.2,0.5,0.4,0.6c0.2,0.2,0.4,0.3,0.6,0.4c0.5,0.2,1,0.1,1.5-0.1
	c0.6,0.4,1.3,0.7,2,0.7c0.5,0,1-0.1,1.5-0.4C6.9,15.9,7.6,16,8.4,16s1.5-0.3,2.2-0.7c0.3,0.2,0.7,0.3,1.1,0.3c0.6,0,1.2-0.2,1.7-0.7
	c0.5-0.4,0.7-1,0.7-1.6s-0.3-1.2-0.7-1.6C12.9,11.3,12.3,11.1,11.7,11.1L11.7,11.1z M11.7,14.7c-0.2,0-0.5-0.1-0.7-0.2
	c-0.3-0.2-0.7-0.1-1.1,0.1c-0.5,0.3-1.1,0.5-1.7,0.5c-0.5,0-1.1-0.1-1.5-0.4c-0.2-0.1-0.3-0.1-0.5-0.1s-0.3,0-0.5,0.1
	c-0.3,0.2-0.7,0.2-1,0.2c-0.5,0-1-0.1-1.3-0.4c-0.2-0.1-0.4-0.2-0.6-0.2c-0.2,0-0.6,0.2-0.9,0.2c-0.2,0-0.3-0.1-0.4-0.2
	c-0.1-0.1-0.2-0.3-0.2-0.4c0-0.2,0.1-0.3,0.2-0.4c0.1-0.1,0.3-0.2,0.4-0.2c0,0,0.4,0.1,0.5,0.1c0.2,0,0.3,0,0.5-0.1
	c0-0.2,0.1-0.3,0.2-0.4c0.2-0.2,0.4-0.4,0.7-0.5s0.6-0.2,0.9-0.2c0.1,0,0.5,0.1,0.6,0.1s0.3,0,0.4-0.1S5.9,12.1,6,12
	c0.3-0.3,0.6-0.5,1-0.7S7.8,11,8.2,11c0.4,0,0.8,0.1,1.2,0.2c0.4,0.1,0.7,0.4,1,0.6c0.1,0.1,0.2,0.2,0.3,0.2s0.3,0.1,0.4,0.1
	c0.1,0,0.5-0.1,0.6-0.1c0.4,0,0.7,0.2,1,0.4s0.4,0.6,0.5,0.9c0,0.4-0.2,0.7-0.4,0.9C12.4,14.5,12.1,14.7,11.7,14.7z"/>
<path class="st1" d="M15.3,7.6c-1.1,0.3-2.2,0.3-3.2,0c-1.6-0.5-3-1.7-3.6-3.3c-0.4-1-0.5-2-0.3-3.1c0.1-0.2,0-0.5-0.3-0.6
	c-0.1,0-0.2,0-0.3,0C5.2,1.8,3.7,4.3,4,6.9c0.1,1,0.5,2,1.1,2.8c0.8-0.6,1.7-0.9,2.6-0.9h0.2c1,0,2,0.3,2.8,0.9H11
	c0.9,0,1.7,0.3,2.3,0.9c0.2,0.2,0.4,0.4,0.5,0.6c1-0.8,1.7-1.8,2.1-3c0.1-0.3,0-0.5-0.3-0.6C15.6,7.6,15.4,7.6,15.3,7.6z"/>
</svg>
