<?xml version="1.0" encoding="utf-8"?>
<!-- Generator: Adobe Illustrator 22.0.0, SVG Export Plug-In . SVG Version: 6.00 Build 0)  -->
<svg version="1.1" id="图层_1" xmlns="http://www.w3.org/2000/svg" xmlns:xlink="http://www.w3.org/1999/xlink" x="0px" y="0px"
	 viewBox="0 0 16 16" style="enable-background:new 0 0 16 16;" xml:space="preserve">
<style type="text/css">
	.st0{fill:#4DC4FF;}
	.st1{fill:#D9D9D9;}
	.st2{fill:#FF7940;}
</style>
<path class="st0" d="M4.5,14.7c-0.2-0.2-0.2-0.4-0.2-0.7c0-0.5,0.4-1.4,0.8-2c0.3,0.6,0.8,1.5,0.8,2c0,0.6-0.3,1-0.8,1
	C4.8,15,4.6,14.9,4.5,14.7z"/>
<path class="st0" d="M11.5,14.7c-0.1-0.2-0.2-0.4-0.2-0.7c0-0.5,0.5-1.4,0.8-2c0.3,0.6,0.8,1.5,0.8,2c0,0.6-0.3,1-0.8,1
	C11.8,15,11.6,14.9,11.5,14.7z"/>
<path class="st0" d="M7.8,15c0,0.6,0.3,1,0.8,1c0.5,0,0.8-0.4,0.8-1c0-0.5-0.5-1.4-0.8-2C8.2,13.6,7.8,14.5,7.8,15z"/>
<path class="st1" d="M12,10.9c-0.9,1-2.2,1.6-3.6,1.6c-1.3,0-2.6-0.6-3.5-1.5c-0.3,0.1-0.7,0.2-1.1,0.2C2.3,11.1,1,9.9,1,8.4
	s1.3-2.7,2.8-2.7c0.2,0,0.3,0,0.5,0c0.8-1.4,2.3-2.3,4.1-2.3s3.3,0.9,4.1,2.3c0.2-0.1,0.4-0.1,0.7-0.1C14.7,5.8,16,7,16,8.4
	s-1.3,2.7-2.8,2.7C12.8,11.2,12.4,11.1,12,10.9z"/>
<path class="st2" d="M5,1.9L5,1.9c0.3,0,0.5-0.2,0.5-0.5V0.5C5.5,0.2,5.2,0,5,0l0,0C4.7,0,4.5,0.2,4.5,0.5v0.9
	C4.5,1.7,4.7,1.9,5,1.9z"/>
<path class="st2" d="M2.1,2.8C2.3,3,2.6,3,2.8,2.8C3,2.7,3,2.3,2.8,2.1l0,0L2.1,1.5C2,1.3,1.6,1.3,1.4,1.5S1.2,2,1.4,2.2l0,0
	L2.1,2.8z"/>
<path class="st2" d="M1.9,5.1c0-0.3-0.2-0.5-0.5-0.5l0,0H0.5C0.2,4.6,0,4.8,0,5.1c0,0.3,0.2,0.5,0.5,0.5l0,0h0.9
	C1.7,5.6,1.9,5.3,1.9,5.1z"/>
<path class="st2" d="M7.5,2.9c0.1,0,0.3-0.1,0.4-0.2l0.6-0.6c0.2-0.2,0.2-0.5,0-0.7C8.3,1.2,8,1.2,7.8,1.4L7.2,2.1
	C7,2.3,7,2.6,7.2,2.8C7.3,2.9,7.4,2.9,7.5,2.9L7.5,2.9z"/>
<path class="st2" d="M2.3,5.3C2.6,5.2,3,5.1,3.3,5c0.1-0.9,0.9-1.6,1.8-1.6c0.2,0,0.4,0,0.6,0.1C6,3.3,6.5,3.2,6.9,3.1
	c-1.2-1-3-0.9-4,0.3C2.5,3.9,2.2,4.6,2.3,5.3C2.2,5.3,2.3,5.3,2.3,5.3z"/>
</svg>
