<?xml version="1.0" encoding="utf-8"?>
<!-- Generator: Adobe Illustrator 22.0.0, SVG Export Plug-In . SVG Version: 6.00 Build 0)  -->
<svg version="1.1" id="图层_1" xmlns="http://www.w3.org/2000/svg" xmlns:xlink="http://www.w3.org/1999/xlink" x="0px" y="0px"
	 viewBox="0 0 16 16" style="enable-background:new 0 0 16 16;" xml:space="preserve">
<style type="text/css">
	.st0{fill:#D9D9D9;}
	.st1{fill:#4DC4FF;}
	.st2{fill:#E6E6E6;}
	.st3{fill:#FFCC66;}
</style>
<path class="st0" d="M11.7,8.2C10.8,9.3,9.4,10,7.9,10c-1.4,0-2.8-0.6-3.8-1.7C2.6,8.9,0.8,8.2,0.2,6.6s0.1-3.3,1.7-3.9
	C2.4,2.5,3,2.4,3.5,2.5C4.4,1,6.1,0,7.9,0s3.5,1,4.4,2.6c1.6-0.4,3.2,0.6,3.6,2.2S15.3,8,13.7,8.4C13.1,8.6,12.3,8.5,11.7,8.2z"/>
<path class="st1" d="M3.3,13c0,0.6,0.3,1,0.8,1s0.8-0.4,0.8-1c0-0.5-0.4-1.4-0.8-2C3.7,11.6,3.3,12.5,3.3,13z"/>
<circle class="st2" cx="12" cy="12.5" r="1"/>
<path class="st3" d="M8.5,12.6C8.4,12.6,8.4,12.6,8.5,12.6l0.7-1.5c0,0,0-0.1-0.1-0.1H7.5H7.4c0,0,0,0-0.1,0.1L6,13.7
	c0,0.1,0,0.2,0.1,0.2h1.4c0.1,0,0.1,0,0.1,0.1l-0.7,1.9C6.9,16,7,16,7,16l3-3.2c0,0,0-0.1-0.1-0.1L8.5,12.6L8.5,12.6z"/>
</svg>
