<?xml version="1.0" encoding="utf-8"?>
<!-- Generator: Adobe Illustrator 22.0.0, SVG Export Plug-In . SVG Version: 6.00 Build 0)  -->
<svg version="1.1" id="图层_1" xmlns="http://www.w3.org/2000/svg" xmlns:xlink="http://www.w3.org/1999/xlink" x="0px" y="0px"
	 viewBox="0 0 16 16" style="enable-background:new 0 0 16 16;" xml:space="preserve">
<style type="text/css">
	.st0{fill:#E6E6E6;}
	.st1{fill:#4DC4FF;}
	.st2{fill:#D9D9D9;}
</style>
<path class="st0" d="M0,10.5C0,10.2,0.2,10,0.5,10S1,10.2,1,10.5v2C1,12.8,0.8,13,0.5,13S0,12.8,0,12.5V10.5z"/>
<path class="st1" d="M2.5,13.7c-0.2-0.2-0.2-0.4-0.2-0.7c0-0.5,0.4-1.4,0.8-2c0.3,0.6,0.8,1.5,0.8,2c0,0.6-0.3,1-0.8,1
	C2.8,14,2.6,13.9,2.5,13.7z"/>
<path class="st1" d="M7.5,15.7c-0.2-0.2-0.2-0.4-0.2-0.7c0-0.5,0.4-1.4,0.8-2c0.3,0.6,0.8,1.5,0.8,2c0,0.6-0.3,1-0.8,1
	C7.8,16,7.6,15.9,7.5,15.7z"/>
<path class="st1" d="M12.3,13c0,0.6,0.3,1,0.8,1s0.8-0.4,0.8-1c0-0.5-0.5-1.4-0.8-2C12.7,11.6,12.3,12.5,12.3,13z"/>
<path class="st0" d="M5.5,12C5.2,12,5,12.2,5,12.5v2C5,14.8,5.2,15,5.5,15S6,14.8,6,14.5v-2C6,12.2,5.8,12,5.5,12z"/>
<path class="st0" d="M15,10.5c0-0.3,0.2-0.5,0.5-0.5s0.5,0.2,0.5,0.5v2c0,0.3-0.2,0.5-0.5,0.5S15,12.8,15,12.5V10.5z"/>
<path class="st0" d="M10.5,12c-0.3,0-0.5,0.2-0.5,0.5v2c0,0.3,0.2,0.5,0.5,0.5s0.5-0.2,0.5-0.5v-2C11,12.2,10.8,12,10.5,12z"/>
<path class="st2" d="M11.7,8.2C10.8,9.3,9.4,10,7.9,10c-1.4,0-2.8-0.6-3.8-1.7C2.6,8.9,0.8,8.2,0.2,6.6s0.1-3.3,1.7-3.9
	C2.4,2.5,3,2.4,3.5,2.5C4.4,1,6.1,0,7.9,0s3.5,1,4.4,2.6c1.6-0.4,3.2,0.6,3.6,2.2S15.3,8,13.7,8.4C13.1,8.6,12.3,8.5,11.7,8.2z"/>
</svg>
