<?xml version="1.0" encoding="utf-8"?>
<!-- Generator: Adobe Illustrator 22.0.0, SVG Export Plug-In . SVG Version: 6.00 Build 0)  -->
<svg version="1.1" id="图层_1" xmlns="http://www.w3.org/2000/svg" xmlns:xlink="http://www.w3.org/1999/xlink" x="0px" y="0px"
	 viewBox="0 0 16 16" style="enable-background:new 0 0 16 16;" xml:space="preserve">
<style type="text/css">
	.st0{fill:#4DC4FF;}
	.st1{fill:#D9D9D9;}
</style>
<path class="st0" d="M1.3,12.2C1.1,12,1,11.8,1,11.5c0-0.5,0.6-1.4,1-2c0.4,0.6,1,1.5,1,2c0,0.6-0.4,1-1,1
	C1.7,12.5,1.5,12.4,1.3,12.2z"/>
<path class="st0" d="M4.3,13.7C4.1,13.5,4,13.3,4,13c0-0.5,0.6-1.4,1-2c0.4,0.6,1,1.5,1,2c0,0.6-0.4,1-1,1C4.7,14,4.5,13.9,4.3,13.7
	z"/>
<path class="st0" d="M10,13c0,0.6,0.4,1,1,1s1-0.4,1-1c0-0.5-0.6-1.4-1-2C10.6,11.6,10,12.5,10,13z"/>
<path class="st0" d="M7.3,15.7C7.1,15.5,7,15.3,7,15c0-0.5,0.6-1.4,1-2c0.4,0.6,1,1.5,1,2c0,0.6-0.4,1-1,1C7.7,16,7.5,15.9,7.3,15.7
	z"/>
<path class="st0" d="M13,11.5c0,0.6,0.4,1,1,1s1-0.4,1-1c0-0.5-0.6-1.4-1-2C13.6,10.1,13,11,13,11.5z"/>
<path class="st1" d="M11.7,8.2C10.8,9.3,9.4,10,7.9,10c-1.4,0-2.8-0.6-3.8-1.7C2.6,8.9,0.8,8.2,0.2,6.6s0.1-3.3,1.7-3.9
	C2.4,2.5,3,2.4,3.5,2.5C4.4,1,6.1,0,7.9,0s3.5,1,4.4,2.6c1.6-0.4,3.2,0.6,3.6,2.2S15.3,8,13.7,8.4C13.1,8.6,12.3,8.5,11.7,8.2z"/>
</svg>
