<?xml version="1.0" encoding="utf-8"?>
<!-- Generator: Adobe Illustrator 22.0.0, SVG Export Plug-In . SVG Version: 6.00 Build 0)  -->
<svg version="1.1" id="图层_1" xmlns="http://www.w3.org/2000/svg" xmlns:xlink="http://www.w3.org/1999/xlink" x="0px" y="0px"
	 viewBox="0 0 16 16" style="enable-background:new 0 0 16 16;" xml:space="preserve">
<style type="text/css">
	.st0{fill:#FFFFFF;}
	.st1{fill:#D9D9D9;}
</style>
<path class="st0" d="M8.9,11.7C9,11.5,9,11.2,8.7,11.1C8.5,11,8.2,11,8.1,11.3L6,15.4c-0.1,0.2-0.1,0.5,0.2,0.6
	c0.2,0.1,0.5,0.1,0.6-0.2L8.9,11.7z"/>
<path class="st0" d="M2.8,11.6C3,11.7,3.1,12,2.9,12.2l-1.2,2.2c-0.1,0.2-0.3,0.3-0.5,0.2l0,0C1,14.5,0.9,14.2,1.1,14l1.2-2.2
	C2.4,11.5,2.6,11.4,2.8,11.6C2.8,11.5,2.8,11.6,2.8,11.6z"/>
<path class="st0" d="M5.8,11.6C6,11.7,6.1,12,5.9,12.2l-1.2,2.2c-0.1,0.2-0.3,0.3-0.5,0.2l0,0C4,14.5,3.9,14.2,4.1,14l1.2-2.2
	C5.4,11.5,5.6,11.4,5.8,11.6C5.8,11.5,5.8,11.6,5.8,11.6z"/>
<path class="st0" d="M14.8,11.6c0.2,0.1,0.3,0.4,0.1,0.6l-1.2,2.2c-0.1,0.2-0.3,0.3-0.5,0.2l0,0c-0.2-0.1-0.3-0.4-0.1-0.6l1.2-2.2
	C14.4,11.5,14.6,11.4,14.8,11.6C14.8,11.5,14.8,11.6,14.8,11.6z"/>
<path class="st0" d="M11.9,12.1c0.1-0.2,0-0.4-0.1-0.6c-0.2-0.1-0.4,0-0.5,0.1l0,0l-1.2,2.2c-0.1,0.2,0,0.4,0.1,0.6
	c0.2,0.1,0.4,0,0.5-0.1l0,0L11.9,12.1z"/>
<path class="st1" d="M11.7,8.2C10.8,9.3,9.4,10,7.9,10c-1.4,0-2.8-0.6-3.8-1.7C2.6,8.9,0.8,8.2,0.2,6.6s0.1-3.3,1.7-3.9
	C2.4,2.5,3,2.4,3.5,2.5C4.4,1,6.1,0,7.9,0s3.5,1,4.4,2.6c1.6-0.4,3.2,0.6,3.6,2.2S15.3,8,13.7,8.4C13.1,8.6,12.3,8.5,11.7,8.2z"/>
</svg>
