<?xml version="1.0" encoding="utf-8"?>
<!-- Generator: Adobe Illustrator 22.0.0, SVG Export Plug-In . SVG Version: 6.00 Build 0)  -->
<svg version="1.1" id="图层_1" xmlns="http://www.w3.org/2000/svg" xmlns:xlink="http://www.w3.org/1999/xlink" x="0px" y="0px"
	 viewBox="0 0 16 16" style="enable-background:new 0 0 16 16;" xml:space="preserve">
<style type="text/css">
	.st0{fill:#F2F2F2;}
	.st1{fill:#D9D9D9;}
</style>
<path class="st0" d="M1.9,12.6c0.1-0.2,0-0.4-0.1-0.6c-0.2-0.1-0.4,0-0.5,0.1l0,0l-1.2,2.2c-0.1,0.2,0,0.4,0.1,0.6
	c0.2,0.1,0.4,0,0.5-0.1l0,0L1.9,12.6z"/>
<path class="st0" d="M4.7,12.6c0.1-0.2,0-0.4-0.1-0.6c-0.2-0.1-0.4,0-0.5,0.1l0,0l-1.2,2.2c-0.1,0.2,0,0.4,0.1,0.6
	c0.2,0.1,0.4,0,0.5-0.1l0,0L4.7,12.6z"/>
<path class="st0" d="M7.4,12.1c0.2,0.1,0.3,0.4,0.1,0.6l-1.2,2.2C6.2,15,6,15.1,5.8,15l0,0c-0.2-0.1-0.3-0.4-0.1-0.6l1.2-2.2
	C7,12,7.2,11.9,7.4,12.1C7.4,12,7.4,12.1,7.4,12.1z"/>
<path class="st0" d="M13.1,12.6c0.1-0.2,0-0.4-0.1-0.6c-0.2-0.1-0.4,0-0.5,0.1l0,0l-1.2,2.2c-0.1,0.2,0,0.4,0.1,0.6
	c0.2,0.1,0.4,0,0.5-0.1l0,0C11.9,14.8,13.1,12.6,13.1,12.6z"/>
<path class="st0" d="M10.2,12.1c0.2,0.1,0.3,0.4,0.1,0.6l-1.2,2.2C9,15,8.8,15.1,8.6,15l0,0c-0.2-0.1-0.3-0.4-0.1-0.6l1.2-2.2
	C9.8,12,10,11.9,10.2,12.1C10.2,12,10.2,12.1,10.2,12.1z"/>
<path class="st0" d="M15.9,12.6c0.1-0.2,0-0.4-0.1-0.6c-0.2-0.1-0.4,0-0.5,0.1l0,0l-1.2,2.2c-0.1,0.2,0,0.4,0.1,0.6
	c0.2,0.1,0.4,0,0.5-0.1l0,0L15.9,12.6z"/>
<path class="st1" d="M11.7,8.2C10.8,9.3,9.4,10,7.9,10c-1.4,0-2.8-0.6-3.8-1.7C2.6,8.9,0.8,8.2,0.2,6.6s0.1-3.3,1.7-3.9
	C2.4,2.5,3,2.4,3.5,2.5C4.4,1,6.1,0,7.9,0s3.5,1,4.4,2.6c1.6-0.4,3.2,0.6,3.6,2.2S15.3,8,13.7,8.4C13.1,8.6,12.3,8.5,11.7,8.2z"/>
</svg>
