<?xml version="1.0" encoding="utf-8"?>
<!-- Generator: Adobe Illustrator 22.0.0, SVG Export Plug-In . SVG Version: 6.00 Build 0)  -->
<svg version="1.1" id="图层_1" xmlns="http://www.w3.org/2000/svg" xmlns:xlink="http://www.w3.org/1999/xlink" x="0px" y="0px"
	 viewBox="0 0 16 16" style="enable-background:new 0 0 16 16;" xml:space="preserve">
<style type="text/css">
	.st0{fill:#F2F2F2;}
	.st1{fill:#D9D9D9;}
</style>
<polygon class="st0" points="1,9 2,10.5 1,12 0,10.5 "/>
<polygon class="st0" points="16,10.5 15,9 14,10.5 15,12 "/>
<polygon class="st0" points="9,14.5 8,13 7,14.5 8,16 "/>
<polygon class="st0" points="4.5,11 5.5,12.5 4.5,14 3.5,12.5 "/>
<polygon class="st0" points="12.5,12.5 11.5,11 10.5,12.5 11.5,14 "/>
<path class="st1" d="M11.7,8.2C10.8,9.3,9.4,10,7.9,10c-1.4,0-2.8-0.6-3.8-1.7C2.6,8.9,0.8,8.2,0.2,6.6s0.1-3.3,1.7-3.9
	C2.4,2.5,3,2.4,3.5,2.5C4.4,1,6.1,0,7.9,0s3.5,1,4.4,2.6c1.6-0.4,3.2,0.6,3.6,2.2S15.3,8,13.7,8.4C13.1,8.6,12.3,8.5,11.7,8.2z"/>
</svg>
