<?xml version="1.0" encoding="utf-8"?>
<!-- Generator: Adobe Illustrator 22.0.0, SVG Export Plug-In . SVG Version: 6.00 Build 0)  -->
<svg version="1.1" id="图层_1" xmlns="http://www.w3.org/2000/svg" xmlns:xlink="http://www.w3.org/1999/xlink" x="0px" y="0px"
	 viewBox="0 0 16 16" style="enable-background:new 0 0 16 16;" xml:space="preserve">
<style type="text/css">
	.st0{fill:#F2F2F2;}
	.st1{fill:#4DC4FF;}
</style>
<path class="st0" d="M7.9,0C7.6,0,7.5,0.1,7.4,0.3L7.2,0.8c0,0.1,0,0.1,0,0.2C3.5,1.3,0.5,3.8,0,6.9c0,0.2,0.4,0.4,0.6,0.3
	C1,7,1.7,6.8,2.6,6.8C4,6.7,4.7,7.1,5,7.4c0.1,0.1,0.4,0.1,0.5,0c0.3-0.3,0.9-0.6,1.9-0.7v8.7C7.5,15.8,7.7,16,8,16s0.5-0.2,0.5-0.5
	V6.7c1,0.1,1.6,0.4,1.9,0.7c0.1,0.1,0.4,0.1,0.5,0c0.3-0.3,1.1-0.7,2.4-0.7c1,0,1.6,0.2,2,0.4c0.3,0.2,0.7,0,0.7-0.2
	C15.5,3.8,12.5,1.3,8.8,1c0-0.1,0-0.1,0-0.2L8.6,0.3C8.5,0.1,8.4,0,8.1,0H7.9z"/>
<path class="st1" d="M1.7,12.8c-0.1-0.2-0.2-0.4-0.2-0.7c0-0.5,0.5-1.4,0.8-2c0.3,0.6,0.8,1.5,0.8,2c0,0.6-0.3,1-0.8,1
	C2,13.1,1.9,13,1.7,12.8z"/>
<path class="st1" d="M4.9,12.8c-0.2-0.2-0.2-0.4-0.2-0.7c0-0.5,0.4-1.4,0.8-2c0.3,0.6,0.8,1.5,0.8,2c0,0.6-0.3,1-0.8,1
	C5.2,13.1,5.1,13,4.9,12.8z"/>
<path class="st1" d="M9.9,11.3c-0.1-0.2-0.2-0.4-0.2-0.7c0-0.5,0.4-1.4,0.8-2c0.3,0.6,0.8,1.5,0.8,2c0,0.6-0.3,1-0.8,1
	C10.2,11.6,10,11.5,9.9,11.3z"/>
<path class="st1" d="M12.8,11.3c-0.1-0.2-0.2-0.4-0.2-0.7c0-0.5,0.5-1.4,0.8-2c0.3,0.6,0.8,1.5,0.8,2c0,0.6-0.3,1-0.8,1
	C13.1,11.6,13,11.5,12.8,11.3z"/>
<path class="st1" d="M11.6,14.6c-0.1-0.2-0.2-0.4-0.2-0.7c0-0.5,0.5-1.4,0.8-2c0.3,0.6,0.8,1.5,0.8,2c0,0.6-0.3,1-0.8,1
	C11.9,14.9,11.7,14.8,11.6,14.6z"/>
</svg>
