<?xml version="1.0" encoding="utf-8"?>
<!-- Generator: Adobe Illustrator 22.0.0, SVG Export Plug-In . SVG Version: 6.00 Build 0)  -->
<svg version="1.1" id="图层_1" xmlns="http://www.w3.org/2000/svg" xmlns:xlink="http://www.w3.org/1999/xlink" x="0px" y="0px"
	 viewBox="0 0 16 16" style="enable-background:new 0 0 16 16;" xml:space="preserve">
<style type="text/css">
	.st0{fill:#4DC4FF;}
	.st1{fill:#F2F2F2;}
</style>
<path class="st0" d="M1.5,10.7c-0.1-0.2-0.2-0.4-0.2-0.7c0-0.5,0.5-1.4,0.8-2c0.3,0.6,0.8,1.5,0.8,2c0,0.6-0.3,1-0.8,1
	C1.8,11,1.6,10.9,1.5,10.7z"/>
<path class="st0" d="M4.3,10.7C4.1,10.5,4,10.3,4,10c0-0.5,0.5-1.4,0.8-2c0.3,0.6,0.8,1.5,0.8,2c0,0.6-0.3,1-0.8,1
	C4.6,11,4.4,10.9,4.3,10.7z"/>
<path class="st0" d="M1.5,14.9c-0.1-0.2-0.2-0.4-0.2-0.7c0-0.5,0.5-1.4,0.8-2c0.3,0.6,0.8,1.5,0.8,2c0,0.6-0.3,1-0.8,1
	C1.8,15.2,1.6,15.1,1.5,14.9z"/>
<path class="st0" d="M4.3,14.9C4.1,14.7,4,14.5,4,14.2c0-0.5,0.5-1.4,0.8-2c0.3,0.6,0.8,1.5,0.8,2c0,0.6-0.3,1-0.8,1
	C4.6,15.2,4.4,15.1,4.3,14.9z"/>
<path class="st0" d="M9.2,10.7C9,10.5,8.9,10.3,8.9,10c0-0.5,0.4-1.4,0.8-2c0.3,0.6,0.8,1.5,0.8,2c0,0.6-0.3,1-0.8,1
	C9.5,11,9.3,10.9,9.2,10.7z"/>
<path class="st0" d="M14.2,10.7C14.1,10.5,14,10.3,14,10c0-0.5,0.4-1.4,0.8-2c0.3,0.6,0.8,1.5,0.8,2c0,0.6-0.3,1-0.8,1
	C14.5,11,14.3,10.9,14.2,10.7z"/>
<path class="st0" d="M11.7,10.7c-0.1-0.2-0.2-0.4-0.2-0.7c0-0.5,0.4-1.4,0.8-2c0.3,0.6,0.8,1.5,0.8,2c0,0.6-0.3,1-0.8,1
	C12,11,11.9,10.9,11.7,10.7z"/>
<path class="st0" d="M10.4,14.9c-0.2-0.2-0.2-0.4-0.2-0.7c0-0.5,0.4-1.4,0.8-2c0.3,0.6,0.8,1.5,0.8,2c0,0.6-0.3,1-0.8,1
	C10.7,15.2,10.6,15.1,10.4,14.9z"/>
<path class="st0" d="M13.2,14.9c-0.1-0.2-0.2-0.4-0.2-0.7c0-0.5,0.4-1.4,0.8-2c0.3,0.6,0.8,1.5,0.8,2c0,0.6-0.3,1-0.8,1
	C13.5,15.2,13.4,15.1,13.2,14.9z"/>
<path class="st1" d="M7.9,0C7.6,0,7.5,0.1,7.4,0.3L7.2,0.8c0,0.1,0,0.1,0,0.2C3.5,1.3,0.5,3.8,0,6.9c0,0.2,0.4,0.4,0.6,0.3
	C1,7,1.7,6.8,2.6,6.8C4,6.7,4.7,7.1,5,7.4c0.1,0.1,0.4,0.1,0.5,0c0.3-0.3,0.9-0.6,1.9-0.7v8.7C7.5,15.8,7.7,16,8,16s0.5-0.2,0.5-0.5
	V6.7c1,0.1,1.6,0.4,1.9,0.7c0.1,0.1,0.4,0.1,0.5,0c0.3-0.3,1.1-0.7,2.4-0.7c1,0,1.6,0.2,2,0.4c0.3,0.2,0.7,0,0.7-0.2
	C15.5,3.8,12.5,1.3,8.8,1c0-0.1,0-0.1,0-0.2L8.6,0.3C8.5,0.1,8.4,0,8.1,0H7.9z"/>
</svg>
