<?xml version="1.0" encoding="utf-8"?>
<!-- Generator: Adobe Illustrator 22.0.0, SVG Export Plug-In . SVG Version: 6.00 Build 0)  -->
<svg version="1.1" id="图层_1" xmlns="http://www.w3.org/2000/svg" xmlns:xlink="http://www.w3.org/1999/xlink" x="0px" y="0px"
	 viewBox="0 0 16 16" style="enable-background:new 0 0 16 16;" xml:space="preserve">
<style type="text/css">
	.st0{fill:#F2F2F2;}
</style>
<path class="st0" d="M2,8.5C2,8.2,2.2,8,2.5,8S3,8.2,3,8.5v2C3,10.8,2.8,11,2.5,11S2,10.8,2,10.5V8.5z M10,8.5C10,8.2,10.2,8,10.5,8
	S11,8.2,11,8.5v2c0,0.3-0.2,0.5-0.5,0.5S10,10.8,10,10.5V8.5z M5.5,8C5.2,8,5,8.2,5,8.5v2C5,10.8,5.2,11,5.5,11S6,10.8,6,10.5v-2
	C6,8.2,5.8,8,5.5,8z M12,8.5C12,8.2,12.2,8,12.5,8S13,8.2,13,8.5v2c0,0.3-0.2,0.5-0.5,0.5S12,10.8,12,10.5V8.5z M14.5,8
	C14.2,8,14,8.2,14,8.5v2c0,0.3,0.2,0.5,0.5,0.5s0.5-0.2,0.5-0.5v-2C15,8.2,14.8,8,14.5,8z M5,12.5C5,12.2,5.2,12,5.5,12
	S6,12.2,6,12.5v2C6,14.8,5.8,15,5.5,15S5,14.8,5,14.5V12.5z M13.5,12c-0.3,0-0.5,0.2-0.5,0.5v2c0,0.3,0.2,0.5,0.5,0.5
	s0.5-0.2,0.5-0.5v-2C14,12.2,13.8,12,13.5,12z M2,12.5C2,12.2,2.2,12,2.5,12S3,12.2,3,12.5v2C3,14.8,2.8,15,2.5,15S2,14.8,2,14.5
	V12.5z M11.5,12c-0.3,0-0.5,0.2-0.5,0.5v2c0,0.3,0.2,0.5,0.5,0.5s0.5-0.2,0.5-0.5v-2C12,12.2,11.8,12,11.5,12z"/>
<path class="st0" d="M7.9,0C7.6,0,7.5,0.1,7.4,0.3L7.2,0.8c0,0.1,0,0.1,0,0.2C3.5,1.3,0.5,3.8,0,6.9c0,0.2,0.4,0.4,0.6,0.3
	C1,7,1.7,6.8,2.6,6.8C4,6.7,4.7,7.1,5,7.4c0.1,0.1,0.4,0.1,0.5,0c0.3-0.3,0.9-0.6,1.9-0.7v8.7C7.5,15.8,7.7,16,8,16s0.5-0.2,0.5-0.5
	V6.7c1,0.1,1.6,0.4,1.9,0.7c0.1,0.1,0.4,0.1,0.5,0c0.3-0.3,1.1-0.7,2.4-0.7c1,0,1.6,0.2,2,0.4c0.3,0.2,0.7,0,0.7-0.2
	C15.5,3.8,12.5,1.3,8.8,1c0-0.1,0-0.1,0-0.2L8.6,0.3C8.5,0.1,8.4,0,8.1,0H7.9z"/>
</svg>
