<?xml version="1.0" encoding="utf-8"?>
<!-- Generator: Adobe Illustrator 22.0.0, SVG Export Plug-In . SVG Version: 6.00 Build 0)  -->
<svg version="1.1" id="图层_1" xmlns="http://www.w3.org/2000/svg" xmlns:xlink="http://www.w3.org/1999/xlink" x="0px" y="0px"
	 viewBox="0 0 16 16" style="enable-background:new 0 0 16 16;" xml:space="preserve">
<style type="text/css">
	.st0{fill:#F2F2F2;}
</style>
<path class="st0" d="M1,8.5C1,8.2,1.2,8,1.5,8S2,8.2,2,8.5v2C2,10.8,1.8,11,1.5,11S1,10.8,1,10.5V8.5z M3,8.5C3,8.2,3.2,8,3.5,8
	S4,8.2,4,8.5v2C4,10.8,3.8,11,3.5,11S3,10.8,3,10.5V8.5z M5.5,8C5.2,8,5,8.2,5,8.5v2C5,10.8,5.2,11,5.5,11S6,10.8,6,10.5v-2
	C6,8.2,5.8,8,5.5,8z M4,12.5C4,12.2,4.2,12,4.5,12S5,12.2,5,12.5v2C5,14.8,4.8,15,4.5,15S4,14.8,4,14.5V12.5z M2.5,12
	C2.2,12,2,12.2,2,12.5v2C2,14.8,2.2,15,2.5,15S3,14.8,3,14.5v-2C3,12.2,2.8,12,2.5,12z M10,8.5C10,8.2,10.2,8,10.5,8S11,8.2,11,8.5
	v2c0,0.3-0.2,0.5-0.5,0.5S10,10.8,10,10.5V8.5z M12.5,8C12.2,8,12,8.2,12,8.5v2c0,0.3,0.2,0.5,0.5,0.5s0.5-0.2,0.5-0.5v-2
	C13,8.2,12.8,8,12.5,8z M14,8.5C14,8.2,14.2,8,14.5,8S15,8.2,15,8.5v2c0,0.3-0.2,0.5-0.5,0.5S14,10.8,14,10.5V8.5z M14.5,12
	c-0.3,0-0.5,0.2-0.5,0.5v2c0,0.3,0.2,0.5,0.5,0.5s0.5-0.2,0.5-0.5v-2C15,12.2,14.8,12,14.5,12z M10,12.5c0-0.3,0.2-0.5,0.5-0.5
	s0.5,0.2,0.5,0.5v2c0,0.3-0.2,0.5-0.5,0.5S10,14.8,10,14.5V12.5z M12.5,12c-0.3,0-0.5,0.2-0.5,0.5v2c0,0.3,0.2,0.5,0.5,0.5
	s0.5-0.2,0.5-0.5v-2C13,12.2,12.8,12,12.5,12z"/>
<path class="st0" d="M7.9,0C7.6,0,7.5,0.1,7.4,0.3L7.2,0.8c0,0.1,0,0.1,0,0.2C3.5,1.3,0.5,3.8,0,6.9c0,0.2,0.4,0.4,0.6,0.3
	c0.4-0.2,1.1-0.4,2-0.4C4,6.7,4.7,7.1,5,7.4c0.1,0.1,0.4,0.1,0.5,0c0.3-0.3,0.9-0.6,1.9-0.7v8.7C7.5,15.8,7.7,16,8,16
	c0.3,0,0.5-0.2,0.5-0.5V6.7c1,0.1,1.6,0.4,1.9,0.7c0.1,0.1,0.4,0.1,0.5,0c0.3-0.3,1.1-0.7,2.4-0.7c1,0,1.6,0.2,2,0.4
	C15.6,7.3,16,7.1,16,6.9C15.5,3.8,12.5,1.3,8.8,1c0-0.1,0-0.1,0-0.2L8.6,0.3C8.5,0.1,8.4,0,8.1,0H7.9z"/>
</svg>
