<?xml version="1.0" encoding="utf-8"?>
<!-- Generator: Adobe Illustrator 22.0.0, SVG Export Plug-In . SVG Version: 6.00 Build 0)  -->
<svg version="1.1" id="图层_1" xmlns="http://www.w3.org/2000/svg" xmlns:xlink="http://www.w3.org/1999/xlink" x="0px" y="0px"
	 viewBox="0 0 16 16" style="enable-background:new 0 0 16 16;" xml:space="preserve">
<style type="text/css">
	.st0{fill:#4DC4FF;}
	.st1{fill:#D9D9D9;}
	.st2{fill:#FFD500;}
</style>
<path class="st0" d="M3.8,15c0,0.6,0.3,1,0.8,1s0.8-0.4,0.8-1c0-0.5-0.4-1.4-0.8-2C4.2,13.6,3.8,14.5,3.8,15z"/>
<path class="st0" d="M9.8,15c0,0.6,0.3,1,0.8,1s0.8-0.4,0.8-1c0-0.5-0.5-1.4-0.8-2C10.2,13.6,9.8,14.5,9.8,15z"/>
<path class="st1" d="M11,10.9c-0.9,1-2.2,1.6-3.6,1.6c-1.3,0-2.6-0.6-3.5-1.5c-0.3,0.1-0.7,0.2-1.1,0.2C1.3,11.1,0,9.9,0,8.4
	s1.3-2.7,2.8-2.7c0.2,0,0.3,0,0.5,0c0.8-1.4,2.3-2.3,4.1-2.3s3.3,0.9,4.1,2.3c0.2-0.1,0.4-0.1,0.7-0.1C13.7,5.8,15,7,15,8.4
	s-1.3,2.7-2.8,2.7C11.8,11.2,11.4,11.1,11,10.9z"/>
<path class="st2" d="M15.8,4.3C15.7,4.3,15.7,4.3,15.8,4.3c-0.7,0.2-1.3,0.2-1.9-0.1c-1.6-0.5-2.4-2.2-2-3.8c0-0.2-0.1-0.3-0.2-0.4
	c0,0,0,0-0.1,0h-0.1c-1.4,0.6-2.2,1.8-2.3,3.2c0.3,0.1,0.7,0.2,1,0.3c0-0.6,0.2-1.2,0.5-1.7c0.2,1.5,1.3,2.8,2.8,3.4
	c0.3,0.1,0.6,0.2,0.8,0.2c-0.1,0.1-0.2,0.1-0.2,0.2c0.3,0.2,0.6,0.4,0.8,0.6c0.5-0.4,0.9-0.9,1.1-1.5C16.1,4.6,16,4.4,15.8,4.3
	L15.8,4.3z"/>
</svg>
