<?xml version="1.0" encoding="utf-8"?>
<!-- Generator: Adobe Illustrator 22.0.0, SVG Export Plug-In . SVG Version: 6.00 Build 0)  -->
<svg version="1.1" id="图层_1" xmlns="http://www.w3.org/2000/svg" xmlns:xlink="http://www.w3.org/1999/xlink" x="0px" y="0px"
	 viewBox="0 0 16 16" style="enable-background:new 0 0 16 16;" xml:space="preserve">
<style type="text/css">
	.st0{fill:#4DC4FF;}
</style>
<path class="st0" d="M2.4,14.5c-0.8-0.9-1.1-2.2-1.1-3.5c0-2.5,2-7,3.7-10c1.6,3,3.8,7.5,3.8,10c0,2.8-1.6,5-3.8,5
	C4,16,3.1,15.5,2.4,14.5z"/>
<path class="st0" d="M11.6,7.2C11.2,6.7,11,6,11,5.3C11,4,12.1,1.6,13,0c0.9,1.6,2,4,2,5.3c0,0.7-0.2,1.4-0.6,1.9
	C14.1,7.7,13.5,8,13,8S11.9,7.7,11.6,7.2z"/>
</svg>
