<?xml version="1.0" encoding="utf-8"?>
<!-- Generator: Adobe Illustrator 22.0.0, SVG Export Plug-In . SVG Version: 6.00 Build 0)  -->
<svg version="1.1" id="图层_1" xmlns="http://www.w3.org/2000/svg" xmlns:xlink="http://www.w3.org/1999/xlink" x="0px" y="0px"
	 viewBox="0 0 16 16" style="enable-background:new 0 0 16 16;" xml:space="preserve">
<style type="text/css">
	.st0{fill:#CCEEFF;}
	.st1{fill:#D9D9D9;}
</style>
<path class="st0" d="M1.5,10c-0.2,0-0.4,0.2-0.4,0.4l0,0v0.5l-0.5-0.3c-0.2-0.1-0.4,0-0.5,0.1c-0.1,0.2,0,0.4,0.1,0.5l0,0l0.5,0.3
	l-0.5,0.3C0,11.9,0,12.1,0.1,12.3s0.3,0.2,0.5,0.1l0,0l0.5-0.3v0.5c0,0.2,0.2,0.4,0.4,0.4s0.4-0.2,0.4-0.4v-0.5l0.5,0.3
	c0.2,0.1,0.4,0,0.5-0.1c0.1-0.2,0-0.4-0.1-0.5l0,0l-0.5-0.3l0.5-0.3C3,11.1,3,10.9,2.9,10.7s-0.3-0.2-0.5-0.1l0,0l-0.5,0.3v-0.5
	C1.9,10.2,1.7,10,1.5,10L1.5,10z"/>
<path class="st0" d="M14.2,10.4c0-0.2,0.2-0.4,0.3-0.4s0.4,0.2,0.4,0.3l0,0v0.5l0.5-0.3c0.2-0.1,0.4,0,0.5,0.1
	c0.1,0.2,0,0.4-0.1,0.5l0,0l-0.5,0.3l0.5,0.3c0.2,0.1,0.2,0.3,0.1,0.5c-0.1,0.2-0.3,0.2-0.5,0.1l0,0L14.9,12v0.5
	c0,0.2-0.2,0.4-0.3,0.4s-0.4-0.2-0.4-0.3l0,0v-0.5l-0.5,0.3c-0.2,0.1-0.4,0-0.5-0.1c-0.1-0.2,0-0.4,0.1-0.5l0,0l0.5-0.3l-0.5-0.3
	c-0.2-0.1-0.2-0.3-0.1-0.5c0.1-0.2,0.3-0.2,0.5-0.1l0,0l0.5,0.3V10.4z"/>
<path class="st0" d="M7.7,13.4C7.7,13.2,7.8,13,8,13s0.4,0.2,0.4,0.3l0,0v0.5l0.5-0.3c0.2-0.1,0.4,0,0.5,0.1c0.1,0.2,0,0.4-0.1,0.5
	l0,0l-0.5,0.3l0.5,0.3c0.2,0.1,0.2,0.3,0.1,0.5c-0.1,0.2-0.3,0.2-0.5,0.1l0,0L8.4,15v0.5C8.4,15.8,8.2,16,8,16s-0.4-0.2-0.4-0.3l0,0
	v-0.5l-0.5,0.3c-0.2,0.1-0.4,0-0.5-0.1c-0.1-0.2,0-0.4,0.1-0.5l0,0l0.5-0.3l-0.5-0.3c-0.2-0.1-0.2-0.3-0.1-0.5s0.3-0.2,0.5-0.1l0,0
	L7.6,14L7.7,13.4L7.7,13.4z"/>
<path class="st0" d="M4.2,12.4c0-0.2,0.2-0.4,0.3-0.4s0.4,0.2,0.4,0.3l0,0v0.5l0.5-0.3c0.2-0.1,0.4,0,0.5,0.1c0.1,0.2,0,0.4-0.1,0.5
	l0,0l-0.5,0.3l0.5,0.3C6,13.8,6,14,5.9,14.2s-0.3,0.2-0.5,0.1l0,0L4.9,14v0.5c0,0.2-0.2,0.4-0.3,0.4s-0.4-0.2-0.4-0.3l0,0v-0.5
	l-0.5,0.3c-0.2,0.1-0.4,0-0.5-0.1c-0.1-0.2,0-0.4,0.1-0.5l0,0l0.5-0.3l-0.5-0.3c-0.2-0.1-0.2-0.3-0.1-0.5c0.1-0.2,0.3-0.2,0.5-0.1
	l0,0l0.5,0.3V12.4z"/>
<path class="st0" d="M11.5,12c-0.2,0-0.4,0.2-0.4,0.3l0,0v0.5l-0.5-0.3c-0.2-0.1-0.4,0-0.5,0.1c-0.1,0.2,0,0.4,0.1,0.5l0,0l0.5,0.3
	l-0.5,0.3C10,13.8,10,14,10.1,14.2s0.3,0.2,0.5,0.1l0,0l0.5-0.3v0.5c0,0.2,0.2,0.4,0.3,0.4s0.4-0.2,0.4-0.3l0,0v-0.5l0.5,0.3
	c0.2,0.1,0.4,0,0.5-0.1c0.1-0.2,0-0.4-0.1-0.5l0,0l-0.5-0.3l0.5-0.3c0.2-0.1,0.2-0.3,0.1-0.5c-0.1-0.2-0.3-0.2-0.5-0.1l0,0l-0.5,0.3
	v-0.5C11.9,12.2,11.7,12,11.5,12L11.5,12z"/>
<path class="st1" d="M11.7,8.2C10.8,9.3,9.4,10,7.9,10c-1.4,0-2.8-0.6-3.8-1.7C2.6,8.9,0.8,8.2,0.2,6.6s0.1-3.3,1.7-3.9
	C2.4,2.5,3,2.4,3.5,2.5C4.4,1,6.1,0,7.9,0s3.5,1,4.4,2.6c1.6-0.4,3.2,0.6,3.6,2.2S15.3,8,13.7,8.4C13.1,8.6,12.3,8.5,11.7,8.2z"/>
</svg>
