<?xml version="1.0" encoding="utf-8"?>
<!-- Generator: Adobe Illustrator 22.0.0, SVG Export Plug-In . SVG Version: 6.00 Build 0)  -->
<svg version="1.1" id="图层_1" xmlns="http://www.w3.org/2000/svg" xmlns:xlink="http://www.w3.org/1999/xlink" x="0px" y="0px"
	 viewBox="0 0 16 16" style="enable-background:new 0 0 16 16;" xml:space="preserve">
<style type="text/css">
	.st0{fill:#4DC4FF;}
	.st1{fill:#CCEEFF;}
	.st2{fill:#D9D9D9;}
</style>
<path class="st0" d="M1.3,13c0,0.6,0.3,1,0.8,1s0.8-0.4,0.8-1c0-0.5-0.4-1.4-0.8-2C1.7,11.6,1.3,12.5,1.3,13z"/>
<path class="st0" d="M13.3,13c0,0.6,0.3,1,0.8,1s0.8-0.4,0.8-1c0-0.5-0.5-1.4-0.8-2C13.7,11.6,13.3,12.5,13.3,13z"/>
<path class="st1" d="M5.2,13.4c0-0.2,0.2-0.4,0.3-0.4s0.4,0.2,0.4,0.3l0,0v0.5l0.5-0.3c0.2-0.1,0.4,0,0.5,0.1c0.1,0.2,0,0.4-0.1,0.5
	l0,0l-0.5,0.3l0.5,0.3C7,14.8,7,15,6.9,15.2s-0.3,0.2-0.5,0.1l0,0L5.9,15v0.5c0,0.2-0.2,0.4-0.3,0.4s-0.4-0.2-0.4-0.3l0,0v-0.5
	l-0.5,0.3c-0.2,0.1-0.4,0-0.5-0.1c-0.1-0.2,0-0.4,0.1-0.5l0,0l0.5-0.3l-0.5-0.3c-0.2-0.1-0.2-0.3-0.1-0.5s0.3-0.2,0.5-0.1l0,0
	l0.5,0.3V13.4z"/>
<path class="st1" d="M10.5,13c-0.2,0-0.4,0.2-0.4,0.3l0,0v0.5l-0.5-0.3c-0.2-0.1-0.4,0-0.5,0.1c-0.1,0.2,0,0.4,0.1,0.5l0,0l0.5,0.3
	l-0.5,0.3C9,14.8,9,15,9.1,15.2s0.3,0.2,0.5,0.1l0,0l0.5-0.3v0.5c0,0.2,0.2,0.4,0.3,0.4s0.4-0.2,0.4-0.3l0,0v-0.5l0.5,0.3
	c0.2,0.1,0.4,0,0.5-0.1c0.1-0.2,0-0.4-0.1-0.5l0,0l-0.5-0.3l0.5-0.3c0.2-0.1,0.2-0.3,0.1-0.5c-0.1-0.2-0.3-0.2-0.5-0.1l0,0l-0.5,0.3
	v-0.5C10.9,13.2,10.7,13,10.5,13L10.5,13z"/>
<path class="st2" d="M11.7,8.2C10.8,9.3,9.4,10,7.9,10c-1.4,0-2.8-0.6-3.8-1.7C2.6,8.9,0.8,8.2,0.2,6.6s0.1-3.3,1.7-3.9
	C2.4,2.5,3,2.4,3.5,2.5C4.4,1,6.1,0,7.9,0s3.5,1,4.4,2.6c1.6-0.4,3.2,0.6,3.6,2.2S15.3,8,13.7,8.4C13.1,8.6,12.3,8.5,11.7,8.2z"/>
</svg>
