<?xml version="1.0" encoding="utf-8"?>
<!-- Generator: Adobe Illustrator 22.0.0, SVG Export Plug-In . SVG Version: 6.00 Build 0)  -->
<svg version="1.1" id="图层_1" xmlns="http://www.w3.org/2000/svg" xmlns:xlink="http://www.w3.org/1999/xlink" x="0px" y="0px"
	 viewBox="0 0 16 16" style="enable-background:new 0 0 16 16;" xml:space="preserve">
<style type="text/css">
	.st0{fill:#CCEEFF;}
	.st1{fill:#D9D9D9;}
	.st2{fill:#FF7940;}
</style>
<path class="st0" d="M6,13c-0.2,0-0.3,0.2-0.3,0.4l0,0v0.5l-0.5-0.3c-0.2-0.1-0.4,0-0.5,0.1c-0.1,0.2,0,0.4,0.1,0.5l0,0l0.5,0.3
	l-0.5,0.3c-0.2,0.1-0.2,0.3-0.1,0.5s0.3,0.2,0.5,0.1l0,0l0.5-0.3v0.5C5.6,15.8,5.8,16,6,16s0.4-0.2,0.4-0.3l0,0v-0.5l0.5,0.3
	c0.2,0.1,0.4,0,0.5-0.1c0.1-0.2,0-0.4-0.1-0.5l0,0l-0.5-0.3l0.5-0.3c0.2-0.1,0.2-0.3,0.1-0.5s-0.3-0.2-0.5-0.1l0,0L6.4,14v-0.5
	C6.3,13.2,6.2,13,6,13L6,13z"/>
<path class="st0" d="M11,13c-0.2,0-0.4,0.2-0.4,0.3l0,0v0.5l-0.5-0.3c-0.2-0.1-0.4,0-0.5,0.1c-0.1,0.2,0,0.4,0.1,0.5l0.5,0.3
	l-0.5,0.3c-0.2,0.1-0.2,0.3-0.1,0.5c0.1,0.2,0.3,0.2,0.5,0.1l0,0l0.5-0.3v0.5c0,0.2,0.2,0.4,0.3,0.4s0.4-0.2,0.4-0.3l0,0v-0.5
	l0.5,0.3c0.2,0.1,0.4,0,0.5-0.1c0.1-0.2,0-0.4-0.1-0.5l0,0l-0.5-0.3l0.5-0.3c0.2-0.1,0.2-0.3,0.1-0.5c-0.1-0.2-0.3-0.2-0.5-0.1l0,0
	l-0.5,0.3v-0.5C11.3,13.2,11.2,13,11,13L11,13z"/>
<path class="st1" d="M12,10.9c-0.9,1-2.2,1.6-3.6,1.6c-1.3,0-2.6-0.6-3.5-1.5c-0.3,0.1-0.7,0.2-1.1,0.2C2.3,11.1,1,9.9,1,8.4
	s1.3-2.7,2.8-2.7c0.2,0,0.3,0,0.5,0c0.8-1.4,2.3-2.3,4.1-2.3s3.3,0.9,4.1,2.3c0.2-0.1,0.4-0.1,0.7-0.1C14.7,5.8,16,7,16,8.4
	s-1.3,2.7-2.8,2.7C12.8,11.2,12.4,11.1,12,10.9z"/>
<path class="st2" d="M5.2,1.9L5.2,1.9c0.3,0,0.5-0.2,0.5-0.5V0.5C5.7,0.2,5.5,0,5.2,0l0,0C4.9,0,4.7,0.2,4.7,0.5v0.9
	C4.7,1.7,4.9,1.9,5.2,1.9z"/>
<path class="st2" d="M2.3,2.8C2.5,3,2.8,3,3,2.8s0.2-0.5,0-0.7l0,0L2.4,1.5c-0.2-0.2-0.5-0.2-0.7,0S1.4,2,1.6,2.2l0,0L2.3,2.8z"/>
<path class="st2" d="M2.1,5.1c0-0.3-0.2-0.5-0.5-0.5l0,0H0.7c-0.3,0-0.5,0.2-0.5,0.5s0.2,0.5,0.5,0.5l0,0h0.9
	C1.9,5.6,2.1,5.3,2.1,5.1L2.1,5.1z"/>
<path class="st2" d="M7.8,2.9c0.1,0,0.3-0.1,0.4-0.2l0.6-0.6C9,1.9,9,1.6,8.8,1.4C8.5,1.2,8.2,1.2,8,1.4L7.4,2.1
	c-0.2,0.2-0.2,0.5,0,0.7C7.5,2.9,7.6,2.9,7.8,2.9z"/>
<path class="st2" d="M2.5,5.3c0.3-0.1,0.7-0.2,1-0.3c0.1-0.9,0.9-1.6,1.8-1.6c0.2,0,0.4,0,0.6,0.1c0.4-0.2,0.8-0.3,1.3-0.4
	c-1.2-1-3-0.9-4,0.3C2.7,3.9,2.5,4.6,2.5,5.3L2.5,5.3z"/>
</svg>
