<?xml version="1.0" encoding="utf-8"?>
<!-- Generator: Adobe Illustrator 22.0.0, SVG Export Plug-In . SVG Version: 6.00 Build 0)  -->
<svg version="1.1" id="图层_1" xmlns="http://www.w3.org/2000/svg" xmlns:xlink="http://www.w3.org/1999/xlink" x="0px" y="0px"
	 viewBox="0 0 16 16" style="enable-background:new 0 0 16 16;" xml:space="preserve">
<style type="text/css">
	.st0{fill:#CCEEFF;}
	.st1{fill:#F2F2F2;}
</style>
<path class="st0" d="M12.2,8.4c0-0.2,0.2-0.4,0.3-0.4s0.4,0.2,0.4,0.3c0,0,0,0,0,0v0.5l0.5-0.3c0.2-0.1,0.4,0,0.5,0.1
	c0.1,0.2,0,0.4-0.1,0.5c0,0,0,0,0,0l-0.5,0.3l0.5,0.3c0.2,0.1,0.2,0.3,0.1,0.5c-0.1,0.2-0.3,0.2-0.5,0.1c0,0,0,0,0,0l-0.5-0.3v0.5
	c0,0.2-0.2,0.4-0.3,0.4s-0.4-0.2-0.4-0.3c0,0,0,0,0,0v-0.5l-0.5,0.3c-0.2,0.1-0.4,0-0.5-0.1c-0.1-0.2,0-0.4,0.1-0.5c0,0,0,0,0,0
	l0.5-0.3l-0.5-0.3c-0.2-0.1-0.2-0.3-0.1-0.5c0.1-0.2,0.3-0.2,0.5-0.1c0,0,0,0,0,0l0.5,0.3V8.4z M3.2,10.4c0-0.2,0.2-0.4,0.3-0.4
	c0.2,0,0.4,0.2,0.4,0.4l0,0v0.5l0.5-0.3c0.2-0.1,0.4,0,0.5,0.1c0.1,0.2,0,0.4-0.1,0.5c0,0,0,0,0,0l-0.5,0.3l0.5,0.3
	c0.2,0.1,0.2,0.3,0.1,0.5c-0.1,0.2-0.3,0.2-0.5,0.1c0,0,0,0,0,0l-0.5-0.3v0.5c0,0.2-0.2,0.4-0.4,0.4c-0.2,0-0.3-0.2-0.3-0.4v-0.5
	l-0.5,0.3c-0.2,0.1-0.4,0-0.5-0.1c-0.1-0.2,0-0.4,0.1-0.5c0,0,0,0,0,0l0.5-0.3l-0.5-0.3c-0.2-0.1-0.2-0.3-0.1-0.5
	c0.1-0.2,0.3-0.2,0.5-0.1c0,0,0,0,0,0l0.5,0.3V10.4z M12.5,12c-0.2,0-0.4,0.2-0.4,0.3v0v0.5l-0.5-0.3c-0.2-0.1-0.4,0-0.5,0.1
	c-0.1,0.2,0,0.4,0.1,0.5c0,0,0,0,0,0l0.5,0.3l-0.5,0.3c-0.2,0.1-0.2,0.3-0.1,0.5c0.1,0.2,0.3,0.2,0.5,0.1c0,0,0,0,0,0l0.5-0.3v0.5
	c0,0.2,0.2,0.4,0.3,0.4s0.4-0.2,0.4-0.3c0,0,0,0,0,0v-0.5l0.5,0.3c0.2,0.1,0.4,0,0.5-0.1c0.1-0.2,0-0.4-0.1-0.5c0,0,0,0,0,0
	l-0.5-0.3l0.5-0.3c0.2-0.1,0.2-0.3,0.1-0.5c-0.1-0.2-0.3-0.2-0.5-0.1c0,0,0,0,0,0l-0.5,0.3v-0.5C12.9,12.2,12.7,12,12.5,12
	C12.5,12,12.5,12,12.5,12z"/>
<path class="st1" d="M7.9,0C7.6,0,7.5,0.1,7.4,0.3L7.2,0.8c0,0.1,0,0.1,0,0.2C3.5,1.3,0.5,3.8,0,6.9c0,0.2,0.4,0.4,0.6,0.3
	c0.4-0.2,1.1-0.4,2-0.4C4,6.7,4.7,7.1,5,7.4c0.1,0.1,0.4,0.1,0.5,0c0.3-0.3,0.9-0.6,1.9-0.7v8.7C7.5,15.8,7.7,16,8,16
	c0.3,0,0.5-0.2,0.5-0.5V6.7c1,0.1,1.6,0.4,1.9,0.7c0.1,0.1,0.4,0.1,0.5,0c0.3-0.3,1.1-0.7,2.4-0.7c1,0,1.6,0.2,2,0.4
	C15.6,7.3,16,7.1,16,6.9C15.5,3.8,12.5,1.3,8.8,1c0-0.1,0-0.1,0-0.2L8.6,0.3C8.5,0.1,8.4,0,8.1,0H7.9z"/>
</svg>
