<?xml version="1.0" encoding="utf-8"?>
<!-- Generator: Adobe Illustrator 22.0.0, SVG Export Plug-In . SVG Version: 6.00 Build 0)  -->
<svg version="1.1" id="图层_1" xmlns="http://www.w3.org/2000/svg" xmlns:xlink="http://www.w3.org/1999/xlink" x="0px" y="0px"
	 viewBox="0 0 16 16" style="enable-background:new 0 0 16 16;" xml:space="preserve">
<style type="text/css">
	.st0{fill:#CCEEFF;}
</style>
<path class="st0" d="M8.5,0.5C8.5,0.2,8.3,0,8,0C7.7,0,7.5,0.2,7.5,0.5v1.3L6.9,1.1C6.7,1,6.3,1,6.1,1.1C6,1.3,6,1.7,6.1,1.9
	l1.4,1.4V5c0,0,0,0,0,0c-0.7,0.1-1.4,0.5-1.8,1c0,0,0,0,0,0L4.1,5.2L3.6,3.3C3.5,3.1,3.3,2.9,3,3C2.7,3,2.6,3.3,2.6,3.6l0.2,0.9
	L1.8,3.8C1.5,3.7,1.2,3.8,1.1,4C0.9,4.2,1,4.5,1.3,4.7l1.1,0.6L1.5,5.6C1.2,5.6,1.1,5.9,1.1,6.2c0.1,0.3,0.3,0.4,0.6,0.4
	c0,0,0,0,0,0L3.6,6l1.6,0.9c0,0,0,0,0,0C4.9,7.6,4.9,8.4,5.2,9c0,0,0,0,0,0L3.6,10L1.8,9.5C1.5,9.4,1.2,9.6,1.1,9.8
	c-0.1,0.3,0.1,0.5,0.3,0.6l0.9,0.2l-1.1,0.6C1,11.5,0.9,11.8,1.1,12s0.4,0.3,0.7,0.2c0,0,0,0,0,0l1.1-0.6l-0.2,0.9
	C2.6,12.7,2.7,13,3,13s0.5-0.1,0.6-0.3c0,0,0,0,0,0l0.5-1.8l1.6-0.9c0,0,0,0,0,0c0.5,0.6,1.1,0.9,1.8,1c0,0,0,0,0,0v1.8l-1.4,1.4
	c-0.2,0.2-0.2,0.5,0,0.7c0.2,0.2,0.5,0.2,0.7,0l0.6-0.6v1.3C7.5,15.8,7.7,16,8,16c0.3,0,0.5-0.2,0.5-0.5v-1.3l0.6,0.6
	c0.2,0.2,0.5,0.2,0.7,0c0.2-0.2,0.2-0.5,0-0.7l-1.4-1.4V11c0,0,0,0,0,0c0.7-0.1,1.4-0.5,1.8-1c0,0,0,0,0,0l1.6,0.9l0.5,1.9
	c0.1,0.3,0.3,0.4,0.6,0.4s0.4-0.3,0.4-0.6l-0.2-0.9l1.1,0.6c0.2,0.1,0.5,0.1,0.7-0.2c0.1-0.2,0.1-0.5-0.2-0.7l-1.1-0.6l0.9-0.2
	c0.3-0.1,0.4-0.3,0.4-0.6s-0.3-0.4-0.6-0.4L12.4,10l-1.6-0.9c0,0,0,0,0,0c0.3-0.7,0.3-1.4,0-2.1c0,0,0,0,0,0L12.4,6l1.8,0.5
	c0.3,0.1,0.5-0.1,0.6-0.4c0.1-0.3-0.1-0.5-0.4-0.6l-0.9-0.2l1.1-0.6C15,4.5,15.1,4.2,14.9,4c-0.1-0.2-0.4-0.3-0.7-0.2l-1.1,0.6
	l0.2-0.9C13.4,3.3,13.3,3,13,3c-0.3-0.1-0.5,0.1-0.6,0.3c0,0,0,0,0,0l-0.5,1.8l-1.6,0.9c0,0,0,0,0,0C9.9,5.5,9.2,5.2,8.5,5
	c0,0,0,0,0,0V3.2l1.4-1.4c0.2-0.2,0.2-0.5,0-0.7C9.7,1,9.3,1,9.1,1.1l0,0L8.5,1.8V0.5z"/>
</svg>
