<?xml version="1.0" encoding="utf-8"?>
<!-- Generator: Adobe Illustrator 22.0.0, SVG Export Plug-In . SVG Version: 6.00 Build 0)  -->
<svg version="1.1" id="图层_1" xmlns="http://www.w3.org/2000/svg" xmlns:xlink="http://www.w3.org/1999/xlink" x="0px" y="0px"
	 viewBox="0 0 16 16" style="enable-background:new 0 0 16 16;" xml:space="preserve">
<style type="text/css">
	.st0{fill:#F2F2F2;}
</style>
<path class="st0" d="M4.5,1.8c0,0.4-0.3,0.8-0.8,0.8S3,2.2,3,1.8S3.3,1,3.8,1S4.5,1.3,4.5,1.8z M8.5,1.8c0,0.4-0.3,0.8-0.8,0.8
	C7.3,2.5,7,2.2,7,1.8S7.3,1,7.8,1C8.2,1,8.5,1.3,8.5,1.8z M5.8,4.5c0.4,0,0.8-0.3,0.8-0.8S6.2,3,5.8,3S5,3.3,5,3.8S5.3,4.5,5.8,4.5z
	 M3.5,5.8c0,0.4-0.3,0.8-0.8,0.8S2,6.2,2,5.8S2.3,5,2.8,5S3.5,5.3,3.5,5.8z M5.8,7.5c0.4,0,0.8-0.3,0.8-0.8S6.2,6,5.8,6S5,6.3,5,6.8
	S5.3,7.5,5.8,7.5z M2.5,10.8c0,0.4-0.3,0.8-0.8,0.8S1,11.2,1,10.8S1.3,10,1.8,10S2.5,10.3,2.5,10.8z M2.8,15.5
	c0.4,0,0.8-0.3,0.8-0.8S3.2,14,2.8,14S2,14.3,2,14.8S2.3,15.5,2.8,15.5z M6,10.5C6,10.8,5.8,11,5.5,11S5,10.8,5,10.5S5.2,10,5.5,10
	S6,10.2,6,10.5z M9.8,5.5c0.4,0,0.8-0.3,0.8-0.8S10.2,4,9.8,4S9,4.3,9,4.8S9.3,5.5,9.8,5.5z"/>
<path class="st0" d="M16,5.1c0-1.9-2.5-3.5-6-4.1c1.9,0.8,3.1,2,3.1,3.3c0,2.4-4.3,4.4-9.6,4.4C2.3,8.7,1.2,8.6,0,8.4
	c2.1,0.8,4.2,1.2,6.5,1.2c2.1,0,4.1-0.3,6.1-1c0,0.1,0,0.1,0,0.2c0,1.8-3.2,3.3-7.2,3.3c-0.9,0-1.8-0.1-2.6-0.2
	c1.5,0.6,3.2,0.9,4.8,0.9c1.4,0,2.9-0.2,4.3-0.7c0,0,0,0,0,0.1c0,1.4-2.4,2.5-5.4,2.5c-0.7,0-1.3-0.1-2-0.2C5.7,14.8,6.9,15,8.1,15
	c3,0,5.4-1.1,5.4-2.5c0-0.2-0.1-0.4-0.1-0.6c-0.1-0.2-0.2-0.3-0.4-0.5c1.1-0.6,1.7-1.3,1.7-2.2c0-0.3-0.1-0.6-0.2-0.8
	C14.4,8.2,14.2,8,14,7.8c0.5-0.2,1-0.6,1.4-1.1C15.7,6.3,15.9,5.7,16,5.1L16,5.1z"/>
</svg>
