<?xml version="1.0" encoding="utf-8"?>
<!-- Generator: Adobe Illustrator 22.0.0, SVG Export Plug-In . SVG Version: 6.00 Build 0)  -->
<svg version="1.1" id="图层_1" xmlns="http://www.w3.org/2000/svg" xmlns:xlink="http://www.w3.org/1999/xlink" x="0px" y="0px"
	 viewBox="0 0 16 16" style="enable-background:new 0 0 16 16;" xml:space="preserve">
<style type="text/css">
	.st0{fill:#F2F2F2;}
</style>
<path class="st0" d="M7,1.5C7,1.8,6.8,2,6.5,2S6,1.8,6,1.5S6.2,1,6.5,1S7,1.2,7,1.5z M3,8.5C3,8.8,2.8,9,2.5,9S2,8.8,2,8.5
	S2.2,8,2.5,8S3,8.2,3,8.5z M7.5,8C7.8,8,8,7.8,8,7.5S7.8,7,7.5,7S7,7.2,7,7.5S7.2,8,7.5,8z M7.5,14.8c0,0.4-0.3,0.8-0.8,0.8
	S6,15.2,6,14.8S6.3,14,6.8,14S7.5,14.3,7.5,14.8z M13.8,13.5c0.4,0,0.8-0.3,0.8-0.8S14.2,12,13.8,12l0,0c-0.4,0-0.8,0.3-0.8,0.8
	S13.3,13.5,13.8,13.5z M10,4c0,0.6-0.4,1-1,1S8,4.6,8,4s0.4-1,1-1S10,3.4,10,4z M5,7c0.6,0,1-0.4,1-1S5.6,5,5,5S4,5.4,4,6S4.4,7,5,7
	z M11.5,14.3c0,0.7-0.6,1.3-1.3,1.3S9,14.9,9,14.3S9.6,13,10.3,13S11.5,13.6,11.5,14.3z M2,4c0.6,0,1-0.4,1-1S2.6,2,2,2S1,2.4,1,3
	S1.4,4,2,4z"/>
<path class="st0" d="M10,1c1.9,1,3.1,2.5,3.1,4.2c0,3.1-4.3,5.7-9.6,5.7c-1.2,0-2.4-0.1-3.5-0.4c2.1,1,4.3,1.5,6.5,1.5
	c2.1,0,4.1-0.4,6.1-1.3c0.5-0.2,1-0.5,1.4-0.9c1.2-1,2-2.2,2-3.5C16,3.9,13.5,1.8,10,1z"/>
</svg>
