<?xml version="1.0" encoding="utf-8"?>
<!-- Generator: Adobe Illustrator 22.0.0, SVG Export Plug-In . SVG Version: 6.00 Build 0)  -->
<svg version="1.1" id="图层_1" xmlns="http://www.w3.org/2000/svg" xmlns:xlink="http://www.w3.org/1999/xlink" x="0px" y="0px"
	 viewBox="0 0 16 16" style="enable-background:new 0 0 16 16;" xml:space="preserve">
<style type="text/css">
	.st0{fill:#F2F2F2;}
</style>
<path class="st0" d="M15.9,8.1l-1.5,1.5c-0.1,0.1-0.2,0.1-0.3,0c0,0-0.1-0.1-0.1-0.1V9H1C0.4,9,0,8.6,0,8s0.4-1,1-1h13V6.5
	c0-0.1,0.1-0.2,0.2-0.2c0.1,0,0.1,0,0.1,0.1l1.5,1.5C15.9,7.9,15.9,8.1,15.9,8.1L15.9,8.1z"/>
<path class="st0" d="M10.5,3c0.4,0.4,1.1,0.5,1.5,0.2c0.4-0.3,0.5-0.9,0.2-1.2c-0.4-0.5-1-0.9-1.5-1.2C9.9,0.2,9.1,0,8.1,0
	C6.8,0,5.8,0.4,5,1.1C4.2,1.8,3.8,2.6,3.8,3.6c0,0.5,0.1,0.9,0.3,1.4c0.2,0.5,0.5,0.9,1,1.3C5.3,6.5,5.5,6.8,5.8,7h3.4
	C9.2,7,9.1,6.9,9.1,6.9C7.7,6,6.8,5.4,6.5,5C6.1,4.6,5.9,4.1,5.9,3.6c0-0.5,0.2-1,0.6-1.3C6.9,2,7.4,1.8,8,1.8
	c0.6,0,1.1,0.1,1.6,0.4C9.8,2.4,10.1,2.6,10.5,3z M11.7,9c0.1,0.1,0.2,0.3,0.3,0.4c0.6,0.8,0.9,1.6,0.9,2.5c0,1.1-0.5,2.1-1.5,2.9
	c-1,0.8-2.1,1.2-3.4,1.2c-2,0-3.7-0.9-4.9-2.7c-0.3-0.4-0.1-0.9,0.4-1.2c0.5-0.2,1.1-0.1,1.4,0.3c0.9,1.2,1.9,1.7,2.9,1.7
	c0.8,0,1.5-0.2,2.1-0.7c0.6-0.5,0.9-1,0.9-1.6c0-0.6-0.2-1.2-0.7-1.7C9.8,9.9,9.3,9.5,8.7,9H11.7z"/>
</svg>
