<?xml version="1.0" encoding="utf-8"?>
<!-- Generator: Adobe Illustrator 22.0.0, SVG Export Plug-In . SVG Version: 6.00 Build 0)  -->
<svg version="1.1" id="图层_1" xmlns="http://www.w3.org/2000/svg" xmlns:xlink="http://www.w3.org/1999/xlink" x="0px" y="0px"
	 viewBox="0 0 16 16" style="enable-background:new 0 0 16 16;" xml:space="preserve">
<style type="text/css">
	.st0{fill:#F2F2F2;}
</style>
<path class="st0" d="M15.9,6.2l-1.6,1.3c-0.1,0.1-0.3,0-0.3-0.2V7H1C0.4,7,0,6.6,0,6s0.4-1,1-1h13V4.7c0-0.2,0.2-0.3,0.3-0.2
	l1.6,1.3C16,5.9,16,6.1,15.9,6.2C15.9,6.2,15.9,6.2,15.9,6.2z M15.9,10.2l-1.6,1.3c-0.1,0.1-0.3,0-0.3-0.2V11H1c-0.6,0-1-0.4-1-1
	s0.4-1,1-1h13V8.7c0-0.2,0.2-0.3,0.3-0.2l1.6,1.3C16,9.9,16,10.1,15.9,10.2C15.9,10.2,15.9,10.2,15.9,10.2z"/>
<path class="st0" d="M12,3.1c-0.5,0.3-1.1,0.2-1.5-0.2c-0.4-0.4-0.7-0.6-0.9-0.8C9.1,2,8.6,1.8,8,1.8C7.4,1.8,6.9,2,6.5,2.3
	C6.1,2.6,5.9,3.1,5.9,3.6c0,0.5,0.2,1,0.6,1.4l0,0H4.1C3.9,4.6,3.8,4.1,3.8,3.6c0-1,0.4-1.9,1.2-2.6C5.8,0.4,6.8,0,8.1,0
	c1,0,1.8,0.2,2.6,0.7c0.5,0.3,1,0.7,1.5,1.2C12.5,2.3,12.4,2.8,12,3.1z M5.8,7h3.4c1.1,0.7,1.9,1.4,2.5,2h-3C8.4,8.8,8,8.5,7.6,8.2
	C7,7.8,6.4,7.4,5.8,7z M10.6,11c0.1,0.3,0.2,0.6,0.2,1c0,0.6-0.3,1.1-0.9,1.6c-0.6,0.5-1.3,0.7-2.1,0.7c-1.1,0-2-0.6-2.9-1.7
	c-0.3-0.4-0.9-0.6-1.4-0.3c-0.5,0.2-0.6,0.8-0.4,1.2C4.4,15.1,6,16,8.1,16c1.3,0,2.5-0.4,3.4-1.2c1-0.8,1.5-1.8,1.5-2.9
	c0-0.3,0-0.6-0.1-0.8H10.6z"/>
</svg>
