<?xml version="1.0" encoding="utf-8"?>
<!-- Generator: Adobe Illustrator 22.0.0, SVG Export Plug-In . SVG Version: 6.00 Build 0)  -->
<svg version="1.1" id="图层_1" xmlns="http://www.w3.org/2000/svg" xmlns:xlink="http://www.w3.org/1999/xlink" x="0px" y="0px"
	 viewBox="0 0 16 16" style="enable-background:new 0 0 16 16;" xml:space="preserve">
<style type="text/css">
	.st0{fill:#F2F2F2;}
	.st1{fill:#D9D9D9;}
</style>
<path class="st0" d="M0.3,11C0.1,11,0,11.1,0,11.3s0.1,0.3,0.3,0.3h9.5c0.1,0,0.3-0.1,0.3-0.3S9.9,11,9.8,11H0.3z"/>
<path class="st0" d="M3.3,12.5c-0.1,0-0.3,0.1-0.3,0.3S3.1,13,3.3,13h3.5C6.9,13,7,12.9,7,12.8s-0.1-0.3-0.3-0.3H3.3z"/>
<path class="st0" d="M10,14.3c0-0.1,0.1-0.3,0.3-0.3h3.5c0.1,0,0.3,0.1,0.3,0.3s-0.1,0.3-0.3,0.3h-3.5C10.1,14.5,10,14.4,10,14.3z"
	/>
<path class="st0" d="M8.3,12.5c-0.1,0-0.3,0.1-0.3,0.3S8.1,13,8.3,13h7.5c0.1,0,0.3-0.1,0.3-0.3s-0.1-0.3-0.3-0.3H8.3V12.5z"/>
<path class="st0" d="M1,14.3C1,14.1,1.1,14,1.3,14h7.5C8.9,14,9,14.1,9,14.3s-0.1,0.3-0.3,0.3H1.3C1.1,14.5,1,14.4,1,14.3z"/>
<path class="st0" d="M3.3,15.5c-0.1,0-0.3,0.1-0.3,0.3S3.1,16,3.3,16h9.5c0.1,0,0.3-0.1,0.3-0.3s-0.1-0.3-0.3-0.3H3.3V15.5z"/>
<path class="st1" d="M11.7,8.2C10.8,9.3,9.4,10,7.9,10c-1.4,0-2.8-0.6-3.8-1.7C2.6,8.9,0.8,8.2,0.2,6.6s0.1-3.3,1.7-3.9
	C2.4,2.5,3,2.4,3.5,2.5C4.4,1,6.1,0,7.9,0s3.5,1,4.4,2.6c1.6-0.4,3.2,0.6,3.6,2.2S15.3,8,13.7,8.4C13.1,8.6,12.3,8.5,11.7,8.2z"/>
</svg>
