<?xml version="1.0" encoding="utf-8"?>
<!-- Generator: Adobe Illustrator 22.0.0, SVG Export Plug-In . SVG Version: 6.00 Build 0)  -->
<svg version="1.1" id="图层_1" xmlns="http://www.w3.org/2000/svg" xmlns:xlink="http://www.w3.org/1999/xlink" x="0px" y="0px"
	 viewBox="0 0 16 16" style="enable-background:new 0 0 16 16;" xml:space="preserve">
<style type="text/css">
	.st0{fill:#F2F2F2;}
	.st1{fill:#D9D9D9;}
</style>
<path class="st0" d="M0.3,11C0.1,11,0,11.1,0,11.3s0.1,0.3,0.3,0.3h9.5c0.1,0,0.3-0.1,0.3-0.3S9.9,11,9.8,11H0.3z"/>
<path class="st0" d="M3.3,12.5c-0.1,0-0.3,0.1-0.3,0.3S3.1,13,3.3,13h3.5C6.9,13,7,12.9,7,12.8s-0.1-0.3-0.3-0.3H3.3z"/>
<path class="st0" d="M10,14.3c0-0.1,0.1-0.3,0.3-0.3h3.5c0.1,0,0.3,0.1,0.3,0.3s-0.1,0.3-0.3,0.3h-3.5C10.1,14.5,10,14.4,10,14.3z"
	/>
<path class="st0" d="M8.3,12.5c-0.1,0-0.3,0.1-0.3,0.3S8.1,13,8.3,13h7.5c0.1,0,0.3-0.1,0.3-0.3s-0.1-0.3-0.3-0.3H8.3V12.5z"/>
<path class="st0" d="M1,14.3C1,14.1,1.1,14,1.3,14h7.5C8.9,14,9,14.1,9,14.3s-0.1,0.3-0.3,0.3H1.3C1.1,14.5,1,14.4,1,14.3z"/>
<path class="st0" d="M3.3,15.5c-0.1,0-0.3,0.1-0.3,0.3S3.1,16,3.3,16h9.5c0.1,0,0.3-0.1,0.3-0.3s-0.1-0.3-0.3-0.3H3.3V15.5z"/>
<path class="st1" d="M15.9,4.9C15.9,5,15.8,5,15.9,4.9L10.3,5C10.1,5,10,4.9,10,4.8s0.1-0.3,0.3-0.3h5.5h0.1
	c-0.2-0.6-0.6-1.2-1.2-1.5h-4.4C10.1,3,10,2.9,10,2.8s0.1-0.3,0.3-0.3h2C11.3,1,9.7,0,7.9,0S4.4,1,3.5,2.5C1.9,2.3,0.3,3.3,0.1,5
	c-0.3,1.6,0.8,3.2,2.4,3.5c0.6,0.1,1.1,0,1.7-0.2C5.1,9.4,6.5,10,7.9,10c1.5,0,2.9-0.7,3.8-1.8c1.5,0.7,3.3,0.1,4-1.4
	C16,6.2,16.1,5.5,15.9,4.9z M8,3.8c0-0.1,0.1-0.3,0.3-0.3h5.5c0.1,0,0.3,0.1,0.3,0.3S13.9,4,13.8,4H8.3C8.1,4,8,3.9,8,3.8z"/>
</svg>
