<?xml version="1.0" encoding="utf-8"?>
<!-- Generator: Adobe Illustrator 22.0.0, SVG Export Plug-In . SVG Version: 6.00 Build 0)  -->
<svg version="1.1" id="图层_1" xmlns="http://www.w3.org/2000/svg" xmlns:xlink="http://www.w3.org/1999/xlink" x="0px" y="0px"
	 viewBox="0 0 16 16" style="enable-background:new 0 0 16 16;" xml:space="preserve">
<style type="text/css">
	.st0{fill:#F2F2F2;}
</style>
<path class="st0" d="M12.5,4.5C11,4.5,8.7,6.2,8,7.4C7.3,6.2,5,4.5,3.4,4.5C1.5,4.5,0,6.1,0,8.1c0,1.9,1.5,3.4,3.4,3.4
	C5,11.5,7.3,9.7,8,8.6c0.7,1.2,3,2.9,4.6,2.9c1.9,0,3.4-1.6,3.4-3.6C15.9,6,14.4,4.5,12.5,4.5C12.5,4.5,12.5,4.5,12.5,4.5z M4,2.5
	c0,0.6-0.4,1-1,1S2,3,2,2.5s0.4-1,1-1S4,1.9,4,2.5z M14,2.5c0,0.6-0.4,1-1,1s-1-0.4-1-1s0.4-1,1-1S14,1.9,14,2.5z M3,14.5
	c0.6,0,1-0.4,1-1s-0.4-1-1-1s-1,0.4-1,1S2.4,14.5,3,14.5z M14,13.5c0,0.6-0.4,1-1,1s-1-0.4-1-1s0.4-1,1-1S14,12.9,14,13.5z"/>
</svg>
