<?xml version="1.0" encoding="utf-8"?>
<!-- Generator: Adobe Illustrator 22.0.0, SVG Export Plug-In . SVG Version: 6.00 Build 0)  -->
<svg version="1.1" id="图层_1" xmlns="http://www.w3.org/2000/svg" xmlns:xlink="http://www.w3.org/1999/xlink" x="0px" y="0px"
	 viewBox="0 0 16 16" style="enable-background:new 0 0 16 16;" xml:space="preserve">
<style type="text/css">
	.st0{fill:#F2F2F2;}
</style>
<path class="st0" d="M3,2.5c0,0.6-0.4,1-1,1S1,3,1,2.5s0.4-1,1-1S3,1.9,3,2.5z M7,3c0,0.6-0.4,1-1,1S5,3.5,5,3s0.4-1,1-1S7,2.4,7,3z
	 M10.1,4c0.6,0,1-0.4,1-1s-0.4-1-1-1s-1,0.4-1,1S9.5,4,10.1,4z M7,13c0,0.6-0.4,1-1,1s-1-0.4-1-1s0.4-1,1-1S7,12.4,7,13z M10.1,14
	c0.6,0,1-0.4,1-1s-0.4-1-1-1s-1,0.4-1,1S9.5,14,10.1,14z M15,2.5c0,0.6-0.4,1-1,1s-1-0.4-1-1s0.4-1,1-1S15,1.9,15,2.5z M2,14.5
	c0.6,0,1-0.4,1-1s-0.4-1-1-1s-1,0.4-1,1S1.4,14.5,2,14.5z M15,13.5c0,0.6-0.4,1-1,1s-1-0.4-1-1s0.4-1,1-1S15,12.9,15,13.5z M15.9,8
	c0-1.9-1.5-3.5-3.4-3.5C11,4.5,8.7,6.2,8,7.4C7.3,6.2,5,4.5,3.4,4.5C1.5,4.5,0,6.1,0,8.1c0,1.9,1.5,3.4,3.4,3.4
	C5,11.5,7.3,9.7,8,8.6c0.7,1.2,3,2.9,4.6,2.9C14.4,11.4,16,9.9,15.9,8C15.9,8,15.9,8,15.9,8z"/>
</svg>
