<?xml version="1.0" encoding="utf-8"?>
<!-- Generator: Adobe Illustrator 22.0.0, SVG Export Plug-In . SVG Version: 6.00 Build 0)  -->
<svg version="1.1" id="图层_1" xmlns="http://www.w3.org/2000/svg" xmlns:xlink="http://www.w3.org/1999/xlink" x="0px" y="0px"
	 viewBox="0 0 16 16" style="enable-background:new 0 0 16 16;" xml:space="preserve">
<style type="text/css">
	.st0{fill:#F2F2F2;}
	.st1{fill:#D9D9D9;}
</style>
<path class="st0" d="M0.5,11C0.2,11,0,11.2,0,11.5S0.2,12,0.5,12h9c0.3,0,0.5-0.2,0.5-0.5S9.8,11,9.5,11H0.5z"/>
<path class="st0" d="M3.5,13C3.2,13,3,13.2,3,13.5S3.2,14,3.5,14h3C6.8,14,7,13.8,7,13.5S6.8,13,6.5,13H3.5z"/>
<path class="st0" d="M8,13.5C8,13.2,8.2,13,8.5,13h7c0.3,0,0.5,0.2,0.5,0.5S15.8,14,15.5,14h-7C8.2,14,8,13.8,8,13.5z"/>
<path class="st0" d="M4.5,15C4.2,15,4,15.2,4,15.5S4.2,16,4.5,16h9c0.3,0,0.5-0.2,0.5-0.5S13.8,15,13.5,15H4.5z"/>
<path class="st1" d="M11.7,8.3c-0.9,1.1-2.3,1.8-3.8,1.8c-1.4,0-2.8-0.6-3.8-1.7C2.6,9,0.8,8.3,0.2,6.7s0.1-3.3,1.7-3.9
	C2.4,2.6,3,2.5,3.5,2.6c1.4-2.4,4.4-3.3,6.8-1.9c0.7,0.4,1.2,0.8,1.6,1.4H7.5C7.2,2.1,7,2.3,7,2.6s0.2,0.5,0.5,0.5h7h0.1
	c0.4,0.3,0.7,0.6,1,1h-5.1c-0.3,0-0.5,0.2-0.5,0.5s0.2,0.5,0.5,0.5H16c0.3,1.6-0.8,3.2-2.5,3.5C12.9,8.7,12.3,8.6,11.7,8.3L11.7,8.3
	z"/>
</svg>
