<?xml version="1.0" encoding="utf-8"?>
<!-- Generator: Adobe Illustrator 22.0.0, SVG Export Plug-In . SVG Version: 6.00 Build 0)  -->
<svg version="1.1" id="图层_1" xmlns="http://www.w3.org/2000/svg" xmlns:xlink="http://www.w3.org/1999/xlink" x="0px" y="0px"
	 viewBox="0 0 16 16" style="enable-background:new 0 0 16 16;" xml:space="preserve">
<style type="text/css">
	.st0{fill:#F2F2F2;}
	.st1{fill:#D9D9D9;}
</style>
<path class="st0" d="M0.3,11C0.1,11,0,11.1,0,11.3s0.1,0.3,0.3,0.3h5.5c0.1,0,0.3-0.1,0.3-0.3S5.9,11,5.8,11H0.3z"/>
<path class="st0" d="M10.3,15.5c-0.1,0-0.3,0.1-0.3,0.3s0.1,0.3,0.3,0.3h5.5c0.1,0,0.3-0.1,0.3-0.3s-0.1-0.3-0.3-0.3H10.3z"/>
<path class="st0" d="M3,12.8c0-0.1,0.1-0.3,0.3-0.3h3.5c0.1,0,0.3,0.1,0.3,0.3S6.9,13,6.8,13H3.3C3.1,13,3,12.9,3,12.8z"/>
<path class="st0" d="M7.3,11C7.1,11,7,11.1,7,11.3s0.1,0.3,0.3,0.3h3.5c0.1,0,0.3-0.1,0.3-0.3S10.9,11,10.8,11H7.3z"/>
<path class="st0" d="M0,15.8c0-0.1,0.1-0.3,0.3-0.3h3.5c0.1,0,0.3,0.1,0.3,0.3S3.9,16,3.8,16H0.3C0.1,16,0,15.9,0,15.8z"/>
<path class="st0" d="M5.3,15.5c-0.1,0-0.3,0.1-0.3,0.3S5.1,16,5.3,16h3.5C8.9,16,9,15.9,9,15.8s-0.1-0.3-0.3-0.3H5.3z"/>
<path class="st0" d="M12,11.3c0-0.1,0.1-0.3,0.3-0.3h3.5c0.1,0,0.3,0.1,0.3,0.3s-0.1,0.3-0.3,0.3h-3.5C12.1,11.5,12,11.4,12,11.3z"
	/>
<path class="st0" d="M10.3,14c-0.1,0-0.3,0.1-0.3,0.3s0.1,0.3,0.3,0.3h3.5c0.1,0,0.3-0.1,0.3-0.3S13.9,14,13.8,14H10.3z"/>
<path class="st0" d="M8,12.8c0-0.1,0.1-0.3,0.3-0.3h7.5c0.1,0,0.3,0.1,0.3,0.3S15.9,13,15.8,13H8.3C8.1,13,8,12.9,8,12.8z"/>
<path class="st0" d="M1.3,14C1.1,14,1,14.1,1,14.3s0.1,0.3,0.3,0.3h7.5c0.1,0,0.3-0.1,0.3-0.3S8.9,14,8.8,14H1.3z"/>
<path class="st1" d="M15.9,4.9C15.9,5,15.8,5,15.9,4.9L10.3,5C10.1,5,10,4.9,10,4.8s0.1-0.3,0.3-0.3h5.5h0.1
	c-0.2-0.6-0.6-1.2-1.2-1.5h-4.4C10.1,3,10,2.9,10,2.8s0.1-0.3,0.3-0.3h2C11.3,1,9.7,0,7.9,0S4.4,1,3.5,2.5C1.9,2.3,0.3,3.3,0.1,5
	c-0.3,1.6,0.8,3.2,2.4,3.5c0.6,0.1,1.1,0,1.7-0.2C5.1,9.4,6.5,10,7.9,10c1.5,0,2.9-0.7,3.8-1.8c1.5,0.7,3.3,0.1,4-1.4
	C16,6.2,16.1,5.5,15.9,4.9z M8,3.8c0-0.1,0.1-0.3,0.3-0.3h5.5c0.1,0,0.3,0.1,0.3,0.3S13.9,4,13.8,4H8.3C8.1,4,8,3.9,8,3.8z"/>
</svg>
