<?xml version="1.0" encoding="utf-8"?>
<!-- Generator: Adobe Illustrator 22.0.0, SVG Export Plug-In . SVG Version: 6.00 Build 0)  -->
<svg version="1.1" id="图层_1" xmlns="http://www.w3.org/2000/svg" xmlns:xlink="http://www.w3.org/1999/xlink" x="0px" y="0px"
	 viewBox="0 0 16 16" style="enable-background:new 0 0 16 16;" xml:space="preserve">
<style type="text/css">
	.st0{fill:#F2F2F2;}
	.st1{fill:#FF8080;}
</style>
<path class="st0" d="M15.1,8.8c-0.2-0.3-0.5-0.6-0.9-0.9C14.1,7.8,14,7.7,14,7.5v-5C14,1.1,12.9,0,11.5,0S9,1.1,9,2.5v5
	c0,0.2-0.1,0.3-0.2,0.4c-2,1.5-2.4,4.3-0.9,6.3s4.3,2.4,6.3,0.9S16.6,10.8,15.1,8.8z M11.5,13.5c-1.1,0-2-0.9-2-2
	c0-0.9,0.6-1.7,1.5-1.9V3.5C11,3.2,11.2,3,11.5,3S12,3.2,12,3.5v6.1c0.9,0.2,1.5,1,1.5,1.9C13.5,12.6,12.6,13.5,11.5,13.5z"/>
<path class="st1" d="M4.9,2.5C4,2.8,3.7,3.6,3.8,4.1C3.1,3.3,3.1,2.4,3.2,1C1.1,1.8,1.6,4.2,1.5,5C1,4.5,0.9,3.5,0.9,3.5
	C0.3,3.8,0,4.6,0,5.3C0,6.9,1.3,8,2.8,8s2.7-1.2,2.7-2.7C5.5,4.2,4.9,3.9,4.9,2.5z"/>
</svg>
