<?xml version="1.0" encoding="utf-8"?>
<!-- Generator: Adobe Illustrator 22.0.0, SVG Export Plug-In . SVG Version: 6.00 Build 0)  -->
<svg version="1.1" id="图层_1" xmlns="http://www.w3.org/2000/svg" xmlns:xlink="http://www.w3.org/1999/xlink" x="0px" y="0px"
	 viewBox="0 0 16 16" style="enable-background:new 0 0 16 16;" xml:space="preserve">
<style type="text/css">
	.st0{fill:#F2F2F2;}
	.st1{fill:#CCEEFF;}
</style>
<path class="st0" d="M15.1,8.8c-0.2-0.3-0.5-0.6-0.9-0.9C14.1,7.8,14,7.7,14,7.5v-5C14,1.1,12.9,0,11.5,0S9,1.1,9,2.5v5
	c0,0.2-0.1,0.3-0.2,0.4c-2,1.5-2.4,4.3-0.9,6.3c1.5,2,4.3,2.4,6.3,0.9C16.2,13.6,16.6,10.8,15.1,8.8z M11.5,13.5c-1.1,0-2-0.9-2-2
	c0-0.9,0.6-1.7,1.5-1.9V7.5C11,7.2,11.2,7,11.5,7S12,7.2,12,7.5v2.1c0.9,0.2,1.5,1,1.5,1.9C13.5,12.6,12.6,13.5,11.5,13.5z"/>
<path class="st1" d="M2.3,1.7C2.3,1.3,2.6,1,3,1s0.7,0.3,0.7,0.7v1.1l0.9-0.5C5,2,5.4,2.1,5.6,2.5c0.2,0.3,0.1,0.8-0.2,1
	c0,0,0,0,0,0L4.4,4l0.9,0.5c0.3,0.2,0.5,0.6,0.3,1C5.4,5.8,5,6,4.7,5.8c0,0,0,0,0,0L3.7,5.2v1.1C3.7,6.7,3.4,7,3,7S2.3,6.7,2.3,6.3
	V5.2L1.4,5.8C1,5.9,0.6,5.8,0.4,5.5C0.2,5.1,0.3,4.7,0.7,4.5L1.6,4L0.7,3.5c-0.3-0.2-0.4-0.6-0.2-1C0.6,2.2,1,2.1,1.4,2.2l0.9,0.5
	V1.7z"/>
</svg>
