<?xml version="1.0" encoding="utf-8"?>
<!-- Generator: Adobe Illustrator 22.0.0, SVG Export Plug-In . SVG Version: 6.00 Build 0)  -->
<svg version="1.1" id="图层_1" xmlns="http://www.w3.org/2000/svg" xmlns:xlink="http://www.w3.org/1999/xlink" x="0px" y="0px"
	 viewBox="0 0 16 16" style="enable-background:new 0 0 16 16;" xml:space="preserve">
<style type="text/css">
	.st0{fill:#D9D9D9;}
</style>
<path class="st0" d="M7.9,13c1.5,0,2.9-0.7,3.8-1.8c1.5,0.7,3.3,0.1,4-1.4s0.1-3.3-1.4-4c-0.6-0.3-1.3-0.4-2-0.2C11.4,4,9.7,3,7.9,3
	S4.4,4,3.5,5.5C1.9,5.3,0.3,6.3,0.1,8s0.8,3.2,2.4,3.5c0.6,0.1,1.1,0,1.7-0.2C5.1,12.4,6.5,13,7.9,13z M8,9.5L8,9.5
	c-0.4,0-0.8-0.3-0.7-0.6c0-0.2,0.1-0.3,0.1-0.4C7.5,8.2,7.8,8,8.1,7.7l0.4-0.3c0.1-0.1,0.2-0.2,0.3-0.3C8.9,7,9,6.8,9,6.6
	C9,6.4,8.9,6.1,8.8,6C8.6,5.7,8.3,5.6,7.9,5.6S7.3,5.8,7.1,6c0,0,0,0.1-0.1,0.1C6.9,6.4,6.5,6.8,6.2,6.8c-0.4,0-0.7-0.3-0.6-0.7
	c0.1-0.6,0.4-1,0.8-1.2s0.9-0.4,1.5-0.4c0.8,0,1.4,0.2,1.9,0.5s0.8,0.8,0.8,1.5c0,0.4-0.1,0.8-0.3,1C10,7.7,9.8,7.9,9.4,8.2L9.1,8.4
	C8.9,8.6,8.8,8.7,8.7,8.9C8.6,9.2,8.4,9.5,8,9.5z M8,11.5L8,11.5c-0.4,0-0.8-0.3-0.8-0.7s0.3-0.7,0.7-0.7l0,0c0.4,0,0.7,0.3,0.7,0.7
	C8.7,11.2,8.4,11.5,8,11.5L8,11.5z"/>
</svg>
